<svg xmlns="http://www.w3.org/2000/svg" xmlns:xlink="http://www.w3.org/1999/xlink" height="12" width="12">
  <defs>
    <rect id="rect-1" opacity="1" x="0" y="0" width="12" height="12"/>
    <mask id="mask-2" maskUnits="userSpaceOnUse" maskContentUnits="userSpaceOnUse">
      <rect opacity="1" x="0" y="0" width="12" height="12" fill="Black"/>
      <use xlink:href="#rect-1" fill="White"/>
    </mask>
  </defs>
  <g opacity="1">
    <g/>
    <g mask="url(#mask-2)">
      <g opacity="1">
        <g opacity="1">
          <g opacity="1">
            <g opacity="1">
              <g opacity="1">
                <path fill="rgb(255,255,255)" fill-opacity="1" opacity="1" fill-rule="evenodd" d="M0.75 3.75L7.5 3.75C7.9141845703125 3.75 8.25 4.0858154296875 8.25 4.5L8.25 11.25C8.25 11.6641845703125 7.9141845703125 12 7.5 12L0.75 12C0.3358154296875 12 0 11.6641845703125 0 11.25L0 4.5C0 4.0858154296875 0.3358154296875 3.75 0.75 3.75ZM0.75 11.25L7.5 11.25L7.5 4.5L0.75 4.5L0.75 11.25Z"/>
              </g>
              <g opacity="1">
                <path fill="rgb(255,255,255)" fill-opacity="1" opacity="1" fill-rule="evenodd" d="M11.25 0L4.5 0C4.0857890625 0 3.75 0.3357890625 3.75 0.75L3.75 2.625L4.5 2.625L4.5 0.75L11.25 0.75L11.25 7.5L9.375 7.5L9.375 8.25L11.25 8.25C11.6642109375 8.25 12 7.9142109375 12 7.5L12 0.75C12 0.3357890625 11.6642109375 0 11.25 0L11.25 0Z"/>
              </g>
            </g>
          </g>
        </g>
      </g>
    </g>
  </g>
</svg>