<svg xmlns="http://www.w3.org/2000/svg" xmlns:xlink="http://www.w3.org/1999/xlink" height="12" width="13.164319582359894">
  <defs>
    <rect id="rect-1" opacity="1" x="0.02121991822423297" y="0" width="13.12149532710282" height="12"/>
    <mask id="mask-2" maskUnits="userSpaceOnUse" maskContentUnits="userSpaceOnUse">
      <rect opacity="1" x="0" y="0" width="13.164319582359894" height="12" fill="Black"/>
      <use xlink:href="#rect-1" fill="White"/>
    </mask>
  </defs>
  <g opacity="1">
    <g/>
    <g mask="url(#mask-2)">
      <g opacity="1">
        <g opacity="1">
          <g opacity="1">
            <path fill="rgb(27,33,34)" fill-opacity="1" opacity="1" fill-rule="evenodd" d="M12.718973824474233 3.9698486328125L13.060770699474233 4.51129150390625C13.142588326427358 4.640869140625 13.164316842052358 4.79180908203125 13.121958443614858 4.93634033203125C13.079584786388295 5.0809326171875 12.978205391857045 5.20172119140625 12.83651227662267 5.27655029296875L11.932657906505483 5.7537841796875C11.83645124146642 5.8045654296875 11.731272408458608 5.82867431640625 11.62740583131017 5.82867431640625C11.602884957286733 5.82867431640625 11.57845563599767 5.82720947265625 11.554209420177358 5.82452392578125L10.462382027599233 6.82305908203125L11.060541817638295 7.37005615234375C11.42000837037267 7.6988525390625 11.42000837037267 8.2337646484375 11.060541817638295 8.5625C10.886423775646108 8.7218017578125 10.654856392833608 8.80950927734375 10.40859479615392 8.80950927734375C10.308268258067983 8.80950927734375 10.210459420177358 8.79473876953125 10.117899605724233 8.76666259765625C10.082148262950795 8.927001953125 9.996042916271108 9.0743408203125 9.866648385021108 9.19268798828125C9.69253034302892 9.3519287109375 9.460978219005483 9.43963623046875 9.214716622325795 9.43963623046875C9.033320137950795 9.43963623046875 8.860026070567983 9.39190673828125 8.711664864513295 9.30322265625C8.667948433849233 9.432373046875 8.590372750255483 9.55078125 8.482828804942983 9.64910888671875C8.303141304942983 9.8134765625 8.066965767833608 9.8956298828125 7.830912301036733 9.89569091796875C7.638376900646108 9.89569091796875 7.445902535411733 9.84100341796875 7.2839304895132955 9.731689453125C7.2405955285757955 9.85504150390625 7.1657664270132955 9.97113037109375 7.058878609630483 10.06890869140625L6.694285103771108 10.40228271484375C6.5201670617789205 10.5615234375 6.2886301965445455 10.64923095703125 6.042368599864858 10.64923095703125C5.7961070031851705 10.64923095703125 5.564585396739858 10.5615234375 5.3904368371695455 10.40228271484375C5.2163035363882955 10.2430419921875 5.120402047130483 10.03131103515625 5.120402047130483 9.80609130859375C5.120402047130483 9.79998779296875 5.120737740489858 9.7939453125 5.120890328380483 9.787841796875C5.1142222375601705 9.7879638671875 5.107615181896108 9.78826904296875 5.100931832286733 9.78826904296875C4.8546702356070455 9.78826904296875 4.623148629161733 9.7005615234375 4.4490000695914205 9.54132080078125C4.2748667688101705 9.382080078125 4.178965279552358 9.17034912109375 4.178965279552358 8.94512939453125C4.178965279552358 8.93896484375 4.179300972911733 8.93292236328125 4.179453560802358 8.9268798828125C4.1727854699820455 8.927001953125 4.166178414317983 8.92730712890625 4.1594798059195455 8.92730712890625C3.913218209239858 8.92730712890625 3.6816966027945455 8.839599609375 3.5075633020132955 8.68035888671875C3.333414742442983 8.5211181640625 3.2375132531851705 8.30938720703125 3.2375132531851705 8.0841064453125C3.2375132531851705 8.05419921875 3.2393443078726705 8.0245361328125 3.2427012414664205 7.9951171875C3.023966500255483 7.98406982421875 2.8087412805289205 7.9024658203125 2.642008492442983 7.75C2.4678599328726705 7.59075927734375 2.371958443614858 7.37896728515625 2.371958443614858 7.15380859375C2.371958443614858 7.098388671875 2.3778330774039205 7.0438232421875 2.3891550988882955 6.99066162109375L1.6493784875601705 6.3140869140625C1.612375924083608 6.32037353515625 1.5747324914664205 6.32373046875 1.536875435802358 6.32373046875C1.4330088586539205 6.32373046875 1.327860543224233 6.299560546875 1.2316233606070455 6.248779296875L0.32776899048985797 5.77154541015625C0.18606061646642047 5.69671630859375 0.08466596314610797 5.575927734375 0.04233808228673297 5.43133544921875C-0.000005057361704530194 5.28680419921875 0.02175397584142047 5.13580322265625 0.10355634400548297 5.0062255859375L1.9218394250601705 2.126068115234375C2.003641793224233 1.9964599609375 2.135752388927358 1.90374755859375 2.293802926036733 1.86505126953125C2.451792427989858 1.826324462890625 2.6169383020132955 1.846160888671875 2.7586619348257955 1.9210205078125L3.6625010461539205 2.39825439453125C3.810373970958608 2.476348876953125 3.909128853771108 2.60272216796875 3.9488779992789205 2.743133544921875L4.7444712609976705 2.743133544921875C4.9816233606070455 2.743133544921875 5.217447945567983 2.7689208984375 5.447642037364858 2.819122314453125L5.710184761974233 2.579010009765625C5.964579293224233 2.34637451171875 6.3027903527945455 2.21826171875 6.6625315637320455 2.21826171875L9.22481794068517 2.21826171875C9.269541451427358 2.08990478515625 9.364542672130483 1.975799560546875 9.50185651490392 1.903289794921875L10.405695626232045 1.426055908203125C10.698298165294545 1.271575927734375 11.07363385865392 1.363616943359375 11.242502877208608 1.631103515625L11.565714547130483 2.143096923828125C11.63650006959142 2.25518798828125 11.59450788209142 2.3985595703125 11.471918770763295 2.4632568359375C11.349375435802358 2.52801513671875 11.192637154552358 2.489593505859375 11.12185163209142 2.377471923828125L10.798624703380483 1.865478515625C10.77108258912267 1.821807861328125 10.709726998302358 1.806854248046875 10.66195172974767 1.832000732421875L9.758127877208608 2.309234619140625C9.710367867442983 2.33447265625 9.69393415162267 2.390533447265625 9.721506783458608 2.4342041015625L11.539805123302358 5.3143310546875C11.567393013927358 5.35797119140625 11.628641793224233 5.373046875 11.676462838146108 5.34783935546875L12.580301949474233 4.87060546875C12.611521431896108 4.8541259765625 12.622919747325795 4.8287353515625 12.62691755006017 4.8150634765625C12.630915352794545 4.8013916015625 12.634943673107045 4.77423095703125 12.61690778443517 4.74566650390625L12.275095650646108 4.2042236328125C12.204325386974233 4.0921630859375 12.246317574474233 3.94879150390625 12.368906685802358 3.88409423828125C12.491587349864858 3.81939697265625 12.64821881959142 3.8577880859375 12.718973824474233 3.9698486328125ZM0.537455269786733 5.31005859375C0.541453072521108 5.32373046875 0.5528208703726705 5.34912109375 0.5840403527945455 5.3656005859375L1.4879099817007955 5.84283447265625C1.535715767833608 5.8680419921875 1.596964547130483 5.85296630859375 1.6245676965445455 5.809326171875L3.4428355188101705 2.929168701171875C3.470408150646108 2.885467529296875 3.453959176036733 2.82940673828125 3.4062144250601705 2.80419921875L2.5023753137320455 2.32696533203125C2.484476754161733 2.317535400390625 2.467081734630483 2.314697265625 2.452646920177358 2.314697265625C2.441935250255483 2.314697265625 2.432871529552358 2.316253662109375 2.4264780969351705 2.31781005859375C2.411539742442983 2.32147216796875 2.383768746349233 2.331878662109375 2.3657481164664205 2.36041259765625L0.547465035411733 5.2406005859375C0.529429146739858 5.2691650390625 0.533457467052358 5.29638671875 0.537455269786733 5.31005859375ZM8.83742780396642 3.7088623046875C8.83742780396642 4.14166259765625 8.608820626232045 4.53997802734375 8.235880562755483 4.786865234375L10.100016304942983 6.49163818359375L11.109385201427358 5.56854248046875C11.104853341075795 5.56201171875 11.10018415162267 5.5555419921875 11.09591169068517 5.54876708984375L9.28927106568517 2.68701171875L6.6625315637320455 2.68701171875C6.439676949474233 2.68701171875 6.230173775646108 2.766357421875 6.072611519786733 2.91046142578125L5.0740611047476705 3.82366943359375C4.996714302989858 3.8944091796875 4.9541270227164205 3.9884033203125 4.9541270227164205 4.08843994140625C4.9541270227164205 4.18841552734375 4.996714302989858 4.282470703125 5.0740611047476705 4.35321044921875C5.2336985559195455 4.4991455078125 5.4934336633414205 4.4991455078125 5.6530711145132955 4.35321044921875L6.5275828332632955 3.55340576171875C6.6276804895132955 3.4619140625 6.789683052989858 3.46429443359375 6.889780709239858 3.5557861328125L7.8659007043570455 4.448486328125C8.14803571412267 4.2943115234375 8.324869820567983 4.01507568359375 8.324869820567983 3.7088623046875C8.324869820567983 3.5794677734375 8.439631173107045 3.4744873046875 8.58114118287267 3.4744873046875C8.722666451427358 3.4744873046875 8.83742780396642 3.5794677734375 8.83742780396642 3.7088623046875ZM10.698160836192983 8.2310791015625C10.62081403443517 8.30181884765625 10.51803083131017 8.34075927734375 10.408640572521108 8.34075927734375C10.299296090099233 8.34075927734375 10.19649762818517 8.30181884765625 10.119150826427358 8.2310791015625L7.6729685754507955 5.99395751953125C7.572886177989858 5.9024658203125 7.4106699914664205 5.9024658203125 7.3105113000601705 5.99395751953125C7.210428902599233 6.08551025390625 7.210428902599233 6.23388671875 7.3105113000601705 6.325439453125L9.504267403575795 8.33172607421875C9.581598946544545 8.40240478515625 9.624201485607045 8.4964599609375 9.624201485607045 8.596435546875C9.624201485607045 8.69647216796875 9.581598946544545 8.79046630859375 9.504267403575795 8.8612060546875C9.426935860607045 8.93194580078125 9.324152657482045 8.97088623046875 9.214762398692983 8.97088623046875C9.105387398692983 8.97088623046875 9.00258893677892 8.93194580078125 8.925272652599233 8.8612060546875L6.289164254161733 6.450439453125C6.1890818567007955 6.35894775390625 6.026804635021108 6.35894775390625 5.926706978771108 6.450439453125C5.8266245813101705 6.54193115234375 5.8266245813101705 6.69036865234375 5.926706978771108 6.7818603515625L8.120463082286733 8.78814697265625C8.197794625255483 8.85888671875 8.240397164317983 8.952880859375 8.240397164317983 9.05291748046875C8.240397164317983 9.15289306640625 8.197794625255483 9.2469482421875 8.120463082286733 9.317626953125C7.9608408899039205 9.463623046875 7.7011057824820455 9.46368408203125 7.5414378137320455 9.317626953125L7.058970162364858 8.87640380859375L7.056894967052358 8.87469482421875C6.872324654552358 8.7069091796875 6.628855416271108 8.6256103515625 6.387034127208608 8.63037109375C6.387186715099233 8.6241455078125 6.387522408458608 8.61798095703125 6.387522408458608 8.6116943359375C6.387522408458608 8.386474609375 6.2916209192007955 8.17474365234375 6.117472359630483 8.0155029296875C5.9326731652945455 7.84649658203125 5.6882883996695455 7.76458740234375 5.445566842052358 7.76934814453125C5.445719429942983 7.76318359375 5.446055123302358 7.7569580078125 5.446055123302358 7.750732421875C5.446055123302358 7.5255126953125 5.3501536340445455 7.31378173828125 5.1760203332632955 7.15447998046875C4.973917672130483 6.96966552734375 4.700541207286733 6.8887939453125 4.4360606164664205 6.91180419921875C4.4254710168570455 6.70147705078125 4.3309275598257955 6.505126953125 4.167063424083608 6.35528564453125C3.8075816125601705 6.0264892578125 3.2226511926382955 6.02655029296875 2.863169381114858 6.35528564453125L2.642008492442983 6.55755615234375L2.6412302942007955 6.55828857421875L2.0721384973257955 6.03778076171875L3.856180855724233 3.21185302734375L4.7444407434195455 3.21185302734375C4.8314768762320455 3.21185302734375 4.9182688684195455 3.216064453125 5.004587838146108 3.22430419921875L4.7116343469351705 3.4921875C4.537485787364858 3.65142822265625 4.441599556896108 3.86322021484375 4.441599556896108 4.08843994140625C4.441599556896108 4.31365966796875 4.537485787364858 4.525390625 4.7116343469351705 4.68463134765625C4.8913828820914205 4.8489990234375 5.1274973840445455 4.93121337890625 5.3635508508414205 4.93121337890625C5.5996653527945455 4.93121337890625 5.8357798547476705 4.84906005859375 6.015513131114858 4.68463134765625L6.7073618859976705 4.05194091796875L10.698130318614858 7.70159912109375C10.857767769786733 7.8475341796875 10.857767769786733 8.08514404296875 10.698160836192983 8.2310791015625ZM2.884531685802358 7.15374755859375C2.884531685802358 7.0537109375 2.9271189660757955 6.959716796875 3.004465767833608 6.88897705078125L3.2256419152945455 6.68670654296875C3.3054453820914205 6.61370849609375 3.410288521739858 6.57720947265625 3.5151621789664205 6.57720947265625C3.619974801036733 6.57720947265625 3.7248484582632955 6.61370849609375 3.8046519250601705 6.68670654296875C3.881998726817983 6.7574462890625 3.9245860070914205 6.8514404296875 3.9245860070914205 6.95147705078125C3.9245860070914205 7.05145263671875 3.881998726817983 7.1455078125 3.8046519250601705 7.2161865234375L3.583475777599233 7.41845703125C3.423838326427358 7.56451416015625 3.164103219005483 7.564453125 3.004465767833608 7.41845703125C2.9271189660757955 7.3477783203125 2.884531685802358 7.2537841796875 2.884531685802358 7.15374755859375ZM3.8700205774039205 8.348876953125C3.9473521203726705 8.41961669921875 4.0501353234976705 8.45855712890625 4.159525582286733 8.45855712890625C4.268870064708608 8.45855712890625 4.3716990442007955 8.41961669921875 4.4490305871695455 8.348876953125L4.8135935754507955 8.0155029296875C4.890940377208608 7.94476318359375 4.9335276574820455 7.85076904296875 4.9335276574820455 7.750732421875C4.9335276574820455 7.6507568359375 4.890940377208608 7.55670166015625 4.8135935754507955 7.48602294921875C4.7337901086539205 7.41302490234375 4.628946969005483 7.37652587890625 4.5240733117789205 7.37652587890625C4.419230172130483 7.37652587890625 4.3143870324820455 7.41302490234375 4.2345835656851705 7.48602294921875L3.8700205774039205 7.81939697265625C3.792673775646108 7.89013671875 3.7500864953726705 7.984130859375 3.7500864953726705 8.08416748046875C3.7500864953726705 8.18414306640625 3.792673775646108 8.2781982421875 3.8700205774039205 8.348876953125ZM5.100962349864858 9.319580078125C4.9915720910757955 9.319580078125 4.8887888879507955 9.28057861328125 4.8114573449820455 9.20989990234375C4.734110543224233 9.13916015625 4.6915232629507955 9.045166015625 4.6915232629507955 8.94512939453125C4.6915232629507955 8.84515380859375 4.734110543224233 8.7510986328125 4.8114573449820455 8.68035888671875L5.1760203332632955 8.34698486328125C5.2558238000601705 8.27398681640625 5.360666939708608 8.23748779296875 5.4655100793570455 8.23748779296875C5.570353219005483 8.23748779296875 5.6752268762320455 8.27398681640625 5.7550303430289205 8.34698486328125C5.832377144786733 8.417724609375 5.8749644250601705 8.51171875 5.8749644250601705 8.61175537109375C5.8749644250601705 8.71173095703125 5.832377144786733 8.8057861328125 5.7550303430289205 8.87646484375L5.3904673547476705 9.20989990234375C5.313151070567983 9.28057861328125 5.210337349864858 9.319580078125 5.100962349864858 9.319580078125ZM6.331888863536733 10.07086181640625L6.6964671106070455 9.7374267578125C6.8561045617789205 9.5914306640625 6.8561045617789205 9.3538818359375 6.6964671106070455 9.20794677734375C6.6166636438101705 9.13494873046875 6.511789986583608 9.09844970703125 6.4069773645132955 9.09844970703125C6.302103707286733 9.09844970703125 6.1972605676382955 9.13494873046875 6.1174571008414205 9.20794677734375L5.7528941125601705 9.54132080078125C5.675547310802358 9.612060546875 5.6329600305289205 9.70611572265625 5.6329600305289205 9.80609130859375C5.6329600305289205 9.9061279296875 5.675547310802358 10.0001220703125 5.7528941125601705 10.07086181640625C5.8302256555289205 10.1416015625 5.9330088586539205 10.1805419921875 6.042399117442983 10.1805419921875C6.151774117442983 10.1805419921875 6.2545725793570455 10.1416015625 6.331888863536733 10.07086181640625Z"/>
          </g>
          <g opacity="1">
            <path fill="rgb(27,33,34)" fill-opacity="1" opacity="1" fill-rule="evenodd" d="M11.92046845794323 3.4081406249999873C11.987869889017997 3.4081406249999873 12.053733644859122 3.3830624999999874 12.101657856307721 3.339468749999987C12.149300160630151 3.295640624999987 12.176747663550714 3.235406249999987 12.176747663550714 3.1737656249999873C12.176747663550714 3.1118906249999876 12.149325788550714 3.0516562499999873 12.101657856307721 3.007828124999987C12.053733644859122 2.9642343749999873 11.987869889017997 2.9393906249999873 11.92046845794323 2.9393906249999873C11.852810747662854 2.9393906249999873 11.786946991821731 2.9642343749999873 11.739279059578738 3.007828124999987C11.691354848130139 3.0516562499999873 11.664189252335746 3.111890624999987 11.664189252335746 3.1737656249999873C11.664189252335746 3.235406249999987 11.691354848130139 3.295640624999987 11.739279059578738 3.339468749999987C11.786946991821731 3.383085937499987 11.852810747662854 3.4081406249999873 11.92046845794323 3.4081406249999873L11.92046845794323 3.4081406249999873Z"/>
          </g>
        </g>
      </g>
    </g>
  </g>
</svg>