<svg xmlns="http://www.w3.org/2000/svg" xmlns:xlink="http://www.w3.org/1999/xlink" height="781" width="601.2080022973105">
  <defs>
    <rect id="rect-1" opacity="1" x="3.104001148655243" y="0" width="595" height="780.9999999999999"/>
    <mask id="mask-2" maskUnits="userSpaceOnUse" maskContentUnits="userSpaceOnUse">
      <rect opacity="1" x="0" y="0" width="601.2080022973105" height="781" fill="Black"/>
      <use xlink:href="#rect-1" fill="White"/>
    </mask>
    <path id="path-31" opacity="1" fill-rule="evenodd" d="M285.027035816624 386.147216796875L212.5813571056865 344.1419677734375C207.45548735470993 341.286376953125 208.08198271603806 335.97509765625 214.03368864865524 332.519775390625L283.5462313732646 292.37060546875C289.6902438244365 288.962890625 297.076108082249 288.656005859375 303.4801913342021 291.54248046875L376.15368376584274 333.462158203125C381.308041675999 336.3177490234375 380.65307341428024 341.6290283203125 374.7298251232646 345.084228515625L304.9609957775615 385.319091796875C298.820736988499 388.7403564453125 291.42846403928024 389.0474853515625 285.027035816624 386.147216796875Z"/>
    <mask id="mask-32" maskUnits="userSpaceOnUse" maskContentUnits="userSpaceOnUse">
      <rect opacity="1" x="0" y="0" width="601.2080022973105" height="781" fill="Black"/>
      <use xlink:href="#path-31" fill="White"/>
    </mask>
  </defs>
  <g opacity="1">
    <g/>
    <g mask="url(#mask-2)">
      <g opacity="1">
        <g opacity="1">
          <g opacity="1">
            <g opacity="1">
              <path fill="rgb(12,12,12)" fill-opacity="1" opacity="1" fill-rule="evenodd" d="M210.21776586579898 69.15057856850628L143.6668421556429 69.15057856850628L125.18522063750375 58.499337796083495C115.64540059347195 52.95955037021213 98.98631185986423 53.67344050241205 87.96568392840064 60.04134048163532L69.65492485881127 70.6925812540581L3.1040011486552386 70.6925812540581L3.1040011486552386 115.61054837207695C3.042117407612153 119.922467752771 5.552236988214856 123.85534537108995 9.4828658945153 125.6050102228758L88.07959222743386 171.0655338413666C97.61941227146565 176.57676566195 114.3069780798317 175.89143113503803 125.32760601129527 169.5235311558148L201.10510194314173 125.49078780172383C206.8005168948025 122.17833758831621 209.87604096869933 117.98066361098068 210.18928879104067 114.06854568652513L210.21776586579898 69.15057856850628Z"/>
            </g>
            <g opacity="1">
              <path fill="rgb(27,33,34)" fill-opacity="1" opacity="1" fill-rule="evenodd" d="M201.1051019431418 122.40678243061942L125.3845601608119 166.32530336355842C114.36393222934832 172.7217589480697 97.67636642098226 173.4070934749816 88.13654637695048 167.8958616543982L9.539820044031906 122.4353380359074C5.592015861461414 120.69699892928247 3.0595306637872666 116.76419300243302 3.104001148655241 112.44087618510855L3.104001148655241 115.61054837207618C3.042117407612153 119.92246775277023 5.552236988214856 123.8553453710892 9.482865894515303 125.60501022287505L88.07959222743389 171.06553384136586C97.61941227146568 176.57676566194925 114.30697807983174 175.8914311350373 125.3276060112953 169.52353115581406L201.1051019431418 125.49078780172306C206.80051689480257 122.17833758831546 209.87604096869939 117.98066361097992 210.18928879104072 114.06854568652436L210.18928879104072 110.87031789426874C209.87604096869939 114.89665823987627 206.82899396956086 119.09433221721181 201.1051019431418 122.40678243061942L201.1051019431418 122.40678243061942Z"/>
            </g>
            <g opacity="1">
              <path fill="rgb(27,33,34)" fill-opacity="1" opacity="1" fill-rule="evenodd" d="M7.347085287642511 118.60888692731645L7.347085287642511 73.80514223044969L73.86953192304026 73.80514223044969L92.1518139178713 63.12534585273893C103.17244184933489 56.75744587351567 119.83153058294263 56.07211134660376 129.39982770173273 61.58334316718712L147.85297214511363 72.23458393960988L210.21776586579898 72.23458393960988L210.21776586579898 69.15057856850623L143.66684215564294 69.15057856850623L125.18522063750376 58.49933779608348C115.64540059347196 52.95955037021213 98.98631185986424 53.67344050241204 87.96568392840064 60.041340481635295L69.65492485881128 70.69258125405806L3.1040011486552386 70.69258125405806L3.1040011486552386 115.6105483720768C3.042117407612153 119.92246775277084 5.552236988214856 123.8553453710898 9.482865894515303 125.60501022287563L10.251746912989503 126.03334430219559C8.235383821053414 124.1116117504584 7.171715792399132 121.3928241743592 7.347085287642513 118.60888692731643L7.347085287642511 118.60888692731645Z"/>
            </g>
            <g opacity="1">
              <path fill="rgb(204,255,0)" fill-opacity="1" opacity="1" fill-rule="evenodd" d="M88.13654637695036 126.1761223286353L9.53982004403182 80.71559871014446C4.263256414560601e-14 75.1758112842731 1.1960371398488039 65.5240166969302 12.216665071312379 59.15611671770692L87.96568392840054 15.237595784767922C98.98631185986413 8.841140200256651 115.64540059347186 8.15580567334473 125.18522063750363 13.695593099216099L203.78194697042215 59.12756111241892C213.32176701445394 64.66734853829028 212.1257298746052 74.31914312563319 201.10510194314162 80.68704310485647L125.38456016081176 124.60556403779546C114.36393222934818 131.00201962230676 97.67636642098212 131.68735414921866 88.13654637695036 126.17612232863527L88.13654637695036 126.1761223286353Z"/>
            </g>
            <g opacity="1">
              <path fill="rgb(12,12,12)" fill-opacity="1" opacity="1" fill-rule="evenodd" d="M203.78194697042227 59.127561112419755L125.18522063750376 13.695593099216865C119.39897661342488 10.691852127312341 112.88200723810719 9.39476534082064 106.39035129702329 9.954808806489284C111.10389241075609 10.16857844453253 115.70838026521838 11.447333847106206 119.86000765770095 13.695593099216861L198.45673399061945 59.127561112419755C207.9965540346512 64.66734853829112 206.80051689480246 74.31914312563406 195.7798889633389 80.68704310485732L120.11630133052569 124.6055640377964C114.45956820069043 127.75893404058455 108.15573990092108 129.56639039184785 101.69163396190314 129.88835101607583C109.91945829592949 130.42382196044372 118.13116084601995 128.62255838782522 125.3845601608119 124.69123085366039L201.10510194314173 80.68704310485732C212.1257298746053 74.31914312563406 213.32176701445405 64.66734853829112 203.78194697042227 59.127561112419755L203.78194697042227 59.127561112419755Z"/>
            </g>
            <g opacity="1">
              <path fill="rgb(27,33,34)" fill-opacity="1" opacity="1" fill-rule="evenodd" d="M94.23064037522734 126.17612232863483L15.576959892792223 80.71559871014405C6.037139848760448 75.17581128427268 7.233176988609207 65.5240166969298 18.25380492007278 59.15611671770652L93.9743467024026 15.237595784767567C99.5460317132653 12.126772363238786 105.74756612255706 10.320732014323031 112.11424332344212 9.954808806488174C103.7252917485821 9.346259182001177 95.33962457571904 11.180724444309204 87.96568392840048 15.237595784767574L12.216665071312374 59.15611671770652C1.1960371398488021 65.5240166969298 4.263256414560601e-14 75.17581128427268 9.539820044031815 80.71559871014405L88.13654637695032 126.17612232863483C94.01782840624237 129.19947600575517 100.63410475312742 130.48677129778218 107.21618646501388 129.8883510160744C102.66703649814221 129.62986765080552 98.23183645652476 128.3619597233926 94.23064037522731 126.17612232863482L94.23064037522734 126.17612232863483Z"/>
            </g>
            <g opacity="1">
              <path fill="rgb(12,12,12)" fill-opacity="1" opacity="1" fill-rule="evenodd" d="M598.104001148655 175.18999178808167L531.5246003637407 175.18999178808167L513.0429788456014 164.68152904209887C503.50315880156967 159.1702972215155 486.844070067962 159.85563174842744 475.8234421364984 166.2520873329387L457.5411601416674 176.90332810536145L390.99023643151133 176.90332810536145L390.99023643151133 221.56429477578834C390.7054656839283 225.3050790685159 392.7842921412845 228.9030853348035 397.3975782521297 231.55875662658718L475.9943045850482 277.019280245078C485.53412462908 282.55906767094933 502.1932133626877 281.8451775387494 513.2138412941513 275.47727755952616L588.9628601512394 231.55875662658715C594.6582751029002 228.24630641317952 597.733799176797 224.048632435844 598.01856992438 219.9937364849485L598.104001148655 175.18999178808167Z"/>
            </g>
            <g opacity="1">
              <path fill="rgb(27,33,34)" fill-opacity="1" opacity="1" fill-rule="evenodd" d="M588.9913372259981 228.47475125548354L513.2423183689099 272.39327218842254C502.22169043744634 278.76117216764584 485.5626017038386 279.4750622998457 476.0227816598068 273.9352748739744L397.4260553268882 228.47475125548354C392.812769216043 225.81907996369983 390.73394275868685 222.22107369741224 391.0187135062699 218.48028940468467L391.0187135062699 221.5642947757883C390.73394275868685 225.30507906851588 392.812769216043 228.90308533480348 397.4260553268882 231.55875662658718L476.0227816598068 277.01928024507805C485.5626017038386 282.5590676709494 502.22169043744634 281.84517753874945 513.2423183689099 275.47727755952616L588.9913372259981 231.55875662658715C594.6867521776588 228.24630641317952 597.7622762515557 224.04863243584398 598.0470469991387 219.99373648494847L598.0470469991387 216.90973111384483C597.7622762515557 220.96462706474037 594.7152292524172 225.16230104207588 588.9913372259981 228.4747512554835L588.9913372259981 228.47475125548354Z"/>
            </g>
            <g opacity="1">
              <path fill="rgb(27,33,34)" fill-opacity="1" opacity="1" fill-rule="evenodd" d="M395.23332057049856 224.64830014689207L395.23332057049856 179.84455545002518L461.7557672058963 179.84455545002518L480.0380492007273 169.1933146776024C491.05867713219084 162.79685909309111 507.74624294055684 162.11152456617918 517.2860629845886 167.62275638676257L535.6252991289363 178.27399715918534L597.9900928496216 178.27399715918534L597.9900928496216 175.1899917880817L531.5246003637405 175.1899917880817L513.0429788456014 164.68152904209887C503.5031588015696 159.1702972215155 486.8440700679619 159.85563174842744 475.82344213649833 166.2520873329387L457.5411601416673 176.90332810536148L390.99023643151133 176.90332810536148L390.99023643151133 221.56429477578843C390.7054656839283 225.305079068516 392.7842921412845 228.90308533480356 397.3975782521297 231.55875662658727L398.13798219584555 232.0156463111952C396.1239958503722 230.11612595257486 395.05915910624844 227.4152878122658 395.23332057049856 224.64830014689207L395.23332057049856 224.64830014689207Z"/>
            </g>
            <g opacity="1">
              <path fill="rgb(204,255,0)" fill-opacity="1" opacity="1" fill-rule="evenodd" d="M476.0227816598069 232.2155355482111L397.42605532688845 186.75501192972035C387.85775820809835 181.243780109137 389.05379534794713 171.5919855217941 400.0744232794107 165.19552993728286L475.82344213649884 121.27700900434392C486.84407006796243 114.90910902512066 503.5031588015701 114.22377449820874 513.0429788456019 119.7350063187921L591.6397051785203 165.19552993728286C601.2080022973105 170.70676175786622 599.9834880827034 180.35855634520908 588.9913372259981 186.75501192972035L513.24231836891 230.67353286265927C502.22169043744645 237.0414328418825 485.5626017038387 237.75532297408245 476.0227816598069 232.2155355482111L476.0227816598069 232.2155355482111Z"/>
            </g>
            <g opacity="1">
              <path fill="rgb(12,12,12)" fill-opacity="1" opacity="1" fill-rule="evenodd" d="M591.6397051785201 165.1955299372824L513.0429788456017 119.73500631879168C507.24778689353286 116.7946507546028 500.74475966095713 115.54785102872347 494.2765865798795 116.1370000525041C499.0029514100027 116.2909659118562 503.6308590036985 117.53173448516758 507.8031970900738 119.76356192407967L586.3999234229922 165.2240855425704C595.939743467024 170.73531736315374 594.7437063271752 180.38711195049666 583.7230783957116 186.78356753500788L508.002536613382 230.6735328626588C502.32453400443137 233.78369862903966 496.01280954016124 235.5515575140376 489.54939217000117 235.84209741978617C497.7757633263765 236.40353523993298 505.9920216824918 234.61117487992072 513.2423183689099 230.6735328626588L588.9913372259979 186.7550119297199C599.9834880827032 180.35855634520863 601.1225710730353 170.70676175786576 591.6397051785202 165.1955299372824L591.6397051785201 165.1955299372824Z"/>
            </g>
            <g opacity="1">
              <path fill="rgb(27,33,34)" fill-opacity="1" opacity="1" fill-rule="evenodd" d="M482.03144443380893 232.21553554821233L403.4347181008905 186.7550119297215C393.8948980568588 181.24378010913813 395.0909351967075 171.5919855217952 406.11156312817104 165.19552993728394L481.83210491050085 121.27700900434493C487.4301648023064 118.22641730026409 493.63786454443937 116.47019889683733 500.00047860629854 116.13700005250551C491.6179962809912 115.51000480476137 483.231028426253 117.29306411006506 475.8234421364987 121.27700900434493L400.07442327941067 165.19552993728394C389.0537953479471 171.5919855217952 387.85775820809835 181.24378010913813 397.4260553268884 186.7550119297215L476.0227816598068 232.21553554821233C481.908569258699 235.2214334336399 488.5279175877563 236.4796058181313 495.1024217478703 235.84209741978793C490.5313569213778 235.61885202498758 486.0668287391635 234.38016211747964 482.0314444338089 232.21553554821233L482.03144443380893 232.21553554821233Z"/>
            </g>
            <g opacity="1">
              <path fill="rgb(12,12,12)" fill-opacity="1" opacity="1" fill-rule="evenodd" d="M452.24442423662333 555.1679279125659L385.69350052646723 555.1679279125659L311.65310615487726 512.3345199805708C302.0848090360872 506.82328815998744 285.4257203024794 507.5086226868994 274.4050923710158 513.9050782714107L202.92763472767317 555.1679279125659L136.40518809227544 555.1679279125659L136.40518809227544 599.9716726094329C136.37074404803732 604.2838774646701 138.88600200270034 608.207290695396 142.81252991289392 609.9661344602318L277.0249832487798 687.6944920541589C286.5648032928116 693.2057238747423 303.2523691011777 692.5203893478304 314.27299703264123 686.123933763319L443.1317603139661 611.5366927510715C448.8271752656268 608.2242425376639 451.9026993395237 604.0265685603283 452.1874700871067 600.1144506358728L452.24442423662333 555.1679279125659Z"/>
            </g>
            <g opacity="1">
              <path fill="rgb(204,255,0)" fill-opacity="1" opacity="1" fill-rule="evenodd" d="M277.02498324877956 642.8621917520045L142.81252991289387 565.1623897633654C133.27270986886208 559.651157942782 134.46874700871084 549.9993633554391 145.4893749401744 543.6029077709278L274.3481382214991 468.9871111533924C285.3687661529626 462.6192111741691 302.02785488657037 461.9338766472572 311.5961520053604 467.44510846784056L445.8086053412462 545.1734660617676C455.34842538527795 550.684697882351 454.1523882454292 560.3364924696939 443.13176031396563 566.7043924489171L314.272997032641 641.3201890664526C303.25236910117746 647.7166446509639 286.5648032928114 648.4019791778758 277.0249832487797 642.8621917520044L277.02498324877956 642.8621917520045Z"/>
            </g>
            <g opacity="1">
              <path fill="rgb(12,12,12)" fill-opacity="1" opacity="1" fill-rule="evenodd" d="M452.24442423662333 463.8756578068402L385.69350052646723 463.8756578068402L311.65310615487726 421.0422498748451C302.0848090360872 415.5310180542617 285.4257203024794 416.2163525811737 274.4050923710158 422.584252560397L202.92763472767317 463.8756578068402L136.40518809227544 463.8756578068402L136.40518809227544 508.707958108995C136.37074404803732 513.0201629642322 138.88600200270034 516.943576194958 142.81252991289392 518.7024199597939L277.0249832487798 596.402221948433C286.5648032928116 601.9420093743042 303.2523691011777 601.2281192421044 314.27299703264123 594.8602192628812L443.1317603139661 520.2444226453457C448.8271752656268 516.9319724319381 451.9026993395237 512.7342984546026 452.1874700871067 508.822180530147L452.24442423662333 463.8756578068402Z"/>
            </g>
            <g opacity="1">
              <path fill="rgb(204,255,0)" fill-opacity="1" opacity="1" fill-rule="evenodd" d="M277.0249832487795 551.5984772515662L142.81252991289367 473.8986752629271C133.27270986886188 468.35888783705576 134.46874700871064 458.7070932497129 145.4893749401742 452.3391932704896L274.34813822149897 377.7233966529542C285.3687661529625 371.35549667373095 302.02785488657025 370.641606541531 311.5961520053603 376.18139396740236L445.8086053412462 453.88119595604144C455.3484253852779 459.42098338191283 454.15238824542917 469.0727779692557 443.13176031396563 475.440677948479L314.2729970326409 550.0564745660145C303.25236910117735 556.4243745452377 286.5648032928113 557.1097090721496 277.02498324877956 551.5984772515662L277.0249832487795 551.5984772515662Z"/>
            </g>
            <g opacity="1">
              <path fill="rgb(12,12,12)" fill-opacity="1" opacity="1" fill-rule="evenodd" d="M452.2444242366231 418.3865785830614L385.69350052646706 418.3865785830614L311.65310615487715 375.5531706510663C302.0848090360871 370.01338322519496 285.42572030247936 370.7272733573949 274.4050923710158 377.09517333661813L202.92763472767325 418.3865785830614L136.40518809227552 418.3865785830614L136.40518809227552 463.2188788852162C136.37813812732628 467.52893486563426 138.89102130361306 471.4486438095357 142.81252991289392 473.21334073601514L277.02498324877973 550.9131427246541C286.56480329281146 556.4529301505255 303.2523691011776 555.7390400183256 314.2729970326411 549.3711400391023L443.1317603139658 474.7553434215669C448.82717526562664 471.4428932081593 451.90269933952345 467.2452192308238 452.1874700871065 463.33310130636823L452.2444242366231 418.3865785830614Z"/>
            </g>
            <g opacity="1">
              <path fill="rgb(204,255,0)" fill-opacity="1" opacity="1" fill-rule="evenodd" d="M277.0249832487795 505.966620001348L142.81252991289367 428.26681801270894C133.27270986886188 422.7270305868376 134.46874700871064 413.0752359994947 145.4893749401742 406.70733602027144L274.34813822149897 332.091539402736C285.3687661529625 325.72363942351274 302.02785488657025 325.0097492913128 311.5961520053603 330.54953671718414L445.8086053412462 408.2493387058232C455.3484253852779 413.76057052640664 454.15238824542917 423.4123651137495 443.13176031396563 429.8088206982608L314.2729970326409 504.42461731579624C303.25236910117735 510.7925172950195 286.5648032928113 511.4778518219314 277.02498324877956 505.966620001348L277.0249832487795 505.966620001348Z"/>
            </g>
            <g opacity="1">
              <path fill="rgb(204,255,0)" fill-opacity="1" opacity="1" fill-rule="evenodd" d="M277.0249832487795 505.3955078955876L142.81252991289367 427.6671503016605C133.27270986886188 422.15591848107715 134.46874700871064 412.5041238937343 145.4893749401742 406.107668309223L274.34813822149897 331.5204272969755C285.3687661529625 325.1239717124643 302.02785488657025 324.43863718555235 311.5961520053603 329.9498690061357L445.8086053412462 407.6782266000628C455.3484253852779 413.18945842064625 454.15238824542917 422.8412530079891 443.13176031396563 429.2377085925003L314.2729970326409 503.82494960474776C303.25236910117735 510.22140518925903 286.5648032928113 510.90673971617093 277.02498324877956 505.3955078955876L277.0249832487795 505.3955078955876Z"/>
            </g>
            <g opacity="1">
              <path fill="rgb(12,12,12)" fill-opacity="1" opacity="1" fill-rule="evenodd" d="M452.24442423662333 338.8592178559905L385.69350052646723 338.8592178559905L311.65310615487726 296.02580992399544C302.0848090360872 290.5145781034121 285.4257203024794 291.199912630324 274.4050923710158 297.5678126095473L202.92763472767317 338.8592178559905L136.40518809227544 338.8592178559905L136.40518809227544 383.6629625528574C136.37074404803732 387.9751674080946 138.88600200270034 391.8985806388204 142.81252991289392 393.65742440365625L277.0249832487798 471.3572263922953C286.5648032928116 476.89701381816667 303.2523691011777 476.2116792912547 314.27299703264123 469.8152237067435L443.1317603139661 395.19942708920803C448.8271752656268 391.8869768758004 451.9026993395237 387.6893028984649 452.1874700871067 383.77718497400934L452.24442423662333 338.8592178559905Z"/>
            </g>
            <g opacity="1">
              <path fill="rgb(27,33,34)" fill-opacity="1" opacity="1" fill-rule="evenodd" d="M443.13176031396597 392.11542171810424L314.2729970326411 466.73121833563977C303.2523691011775 473.09911831486306 286.56480329281146 473.813008447063 277.0249832487797 468.2732210211916L142.81252991289375 390.57341903255247C138.88600200270017 388.8145752677166 136.3707440480372 384.8911620369907 136.40518809227538 380.5789571817536L136.40518809227538 383.66296255285727C136.37074404803727 387.9751674080945 138.88600200270028 391.8985806388203 142.81252991289387 393.65742440365614L277.0249832487797 471.3572263922953C286.56480329281146 476.89701381816667 303.2523691011775 476.21167929125477 314.2729970326411 469.8152237067435L443.13176031396586 395.199427089208C448.8271752656267 391.8869768758003 451.90269933952345 387.6893028984648 452.1874700871065 383.77718497400923L452.1874700871065 380.5789571817536C451.90269933952345 384.60529752736113 448.85565234038506 388.80297150469664 443.13176031396586 392.1154217181043L443.13176031396597 392.11542171810424Z"/>
            </g>
            <g opacity="1">
              <path fill="rgb(12,12,12)" fill-opacity="1" opacity="1" fill-rule="evenodd" d="M140.61979515650438 386.74696792396117L140.61979515650438 341.9432232270942L207.11376471714385 341.9432232270942L278.56274528572817 300.59470677007494C289.5833732171917 294.19825118556366 306.24246195079945 293.5129166586517 315.78228199483124 299.0241484792351L389.8226763664212 341.85755641123023L452.1874700871066 341.85755641123023L452.1874700871066 338.8592178559906L385.6935005264672 338.8592178559906L311.65310615487726 296.02580992399544C302.08480903608717 290.5145781034121 285.42572030247936 291.199912630324 274.4050923710158 297.5678126095473L202.92763472767322 338.8592178559906L136.40518809227544 338.8592178559906L136.40518809227544 383.6629625528575C136.37074404803732 387.97516740809476 138.88600200270034 391.8985806388206 142.81252991289392 393.65742440365636L143.55293385660968 394.0857584829763C141.54634329165665 392.191188992352 140.47344482837724 389.5067686774128 140.61979515650438 386.74696792396117L140.61979515650438 386.74696792396117Z"/>
            </g>
            <g opacity="1">
              <path fill="rgb(12,12,12)" fill-opacity="1" opacity="1" fill-rule="evenodd" d="M448.4569732937686 342.4286685169904L448.4569732937686 386.97541276626515C448.1648558126818 389.53834860631804 447.04476440389016 391.9351350483661 445.26754092083866 393.8002024300963C448.99076847650025 391.6186034547727 451.54119427628183 387.8767473910209 452.2159471618646 383.6058513422816L452.2159471618646 339.31610754059875C450.84524347854864 340.20177839765967 449.58353142677527 341.24651981741886 448.4569732937686 342.4286685169904L448.4569732937686 342.4286685169904Z"/>
            </g>
            <g opacity="1">
              <path fill="rgb(204,255,0)" fill-opacity="1" opacity="1" fill-rule="evenodd" d="M277.02498324877956 426.5534816954289L142.81252991289387 348.8536797067898C133.27270986886208 343.3138922809184 134.46874700871084 333.66209769357556 145.4893749401744 327.29419771435226L274.3481382214991 252.7640679126808C285.3687661529626 246.39616793345752 302.02785488657037 245.7108334065456 311.5961520053604 251.22206522712895L445.8086053412462 328.9218672157681C455.34842538527795 334.4616546416394 454.1523882454292 344.11344922898235 443.13176031396563 350.4813492082056L314.272997032641 425.097145825741C303.25236910117746 431.37937898910036 286.5648032928114 432.09326912130024 277.0249832487797 426.5534816954289L277.02498324877956 426.5534816954289Z"/>
            </g>
            <g opacity="1">
              <path fill="rgb(12,12,12)" fill-opacity="1" opacity="1" fill-rule="evenodd" d="M445.80860534124645 328.83620039990404L311.5961520053606 251.1363984112649C305.79288700290783 248.18825207940537 299.2812063685044 246.93179148471836 292.80128266488003 247.5098365396893C297.5276474950033 247.66380239904143 302.15555508869915 248.90457097235281 306.3278931750744 251.13639841126493L440.54034651096026 328.83620039990404C450.10864362975036 334.3759878257754 448.8841294151433 344.0277824131183 437.891978558438 350.3956823923416L309.00473820235493 425.01147900987706C303.33182764279354 428.1382109543615 297.0184096014219 429.9163139924234 290.55159375897404 430.20859917229245C298.7886944832002 430.74639127297644 307.0101677773939 428.94514941012903 314.2729970326411 425.01147900987706L443.13176031396586 350.3956823923416C454.1523882454295 344.1420048342703 455.34842538527823 334.3759878257754 445.80860534124645 328.83620039990404L445.80860534124645 328.83620039990404Z"/>
            </g>
            <g opacity="1">
              <path fill="rgb(204,255,0)" fill-opacity="1" opacity="1" fill-rule="evenodd" d="M281.4389298363168 404.108775939064L181.51287450942863 346.2836752308706C174.42208289461098 342.17166806939906 175.3048722121184 334.86143311567184 183.50626974250991 330.2354250590164L279.3316263042023 274.6947727738627C287.5330238345938 269.9545422960553 299.94902842921425 269.4405414008713 307.03982004403196 273.55254856234285L406.9943524456784 331.4062048758243C414.0851440604961 335.5182120372958 413.20235474298863 342.685668964583 405.0009572125972 347.45445504767844L309.17560065090476 402.99510733283216C300.94572604575495 407.7353378106396 288.5581985258928 408.24933870582356 281.43892983631685 404.108775939064L281.4389298363168 404.108775939064Z"/>
            </g>
            <g opacity="1">
              <path fill="rgb(204,255,0)" fill-opacity="1" opacity="1" fill-rule="evenodd" d="M285.02704125586297 386.1473002129126L212.581363070738 344.14200483426947C207.45548961424333 341.28644430546984 208.081985258926 335.97510172190243 214.03369388341153 332.51987348205483L283.54623336843116 292.3706924471315C289.6902546782829 288.9628953301925 297.07611719307886 288.65606578809616 303.48018569924386 291.54257989377953L376.1536804824352 333.46220845655876C381.30803101368826 336.3177689853584 380.6530582942473 341.6291115689258 374.72982674452004 345.0843398087734L304.96099358667567 385.3191876595607C298.82072858024236 388.7403960417705 291.42847259506044 389.0474911866434 285.02704125586297 386.1473002129126L285.02704125586297 386.1473002129126Z"/>
            </g>
            <g opacity="1">
              <path fill="rgb(27,33,34)" fill-opacity="1" opacity="1" fill-rule="evenodd" d="M283.0621230975402 426.5534816954289L148.82119268689598 348.8536797067898C139.2813726428642 343.3138922809185 140.47740978271295 333.66209769357556 151.49803771417652 327.2941977143523L280.3568009955014 252.76406791268084C285.9525114250635 249.70352283527723 292.1603388437394 247.93751134133967 298.5251746912992 247.59550335555343C290.1399438509234 246.9772400863833 281.75281227835796 248.77024027629798 274.3481382214993 252.76406791268084L145.48937494017443 327.29419771435226C134.46874700871084 333.66209769357556 133.27270986886208 343.3138922809184 142.81252991289387 348.85367970678976L277.0249832487798 426.5534816954288C282.910770847672 429.55937958085633 289.53011917672933 430.8175519653478 296.10462333684336 430.1800435670044C291.5405074071719 429.96985341663355 287.08242113162703 428.73025016492227 283.0621230975402 426.5534816954288L283.0621230975402 426.5534816954289Z"/>
            </g>
            <g opacity="1">
              <g/>
              <g mask="url(#mask-32)">
                <g opacity="1">
                  <g opacity="1">
                    <path fill="rgb(12,12,12)" fill-opacity="1" opacity="1" fill-rule="evenodd" d="M214.00521680865327 338.43088377667004L283.5462333684312 298.1674803205947C289.69025467828294 294.7596832036557 297.07611719307886 294.45285366155935 303.48018569924386 297.3393677672428L376.15368048243516 339.11621830358195C377.16414757800527 339.66973132112514 378.03195205334845 340.45193140960373 378.6881401359242 341.40066672662164C379.57061285878575 340.0470143765011 379.7975084911968 338.366571764968 379.3057709781186 336.8263469197935C378.8140334650404 335.286122074619 377.65606738307815 334.05025710158435 376.15368048243516 333.4622084565586L303.6225710730354 291.5140242884914C297.2159027645901 288.64106294141993 289.8363488813436 288.9476304051841 283.68861874222273 292.3421368418433L214.00521680865327 332.7197627190707C209.36345362304976 335.4039896161424 207.99655403465118 339.14477390887 210.01842634249073 342.0860012535336C211.0297860983492 340.5594710542823 212.39858843245565 339.3045434687401 214.00521680865327 338.43088377667L214.00521680865327 338.43088377667004Z"/>
                  </g>
                  <g opacity="1">
                    <path fill="rgb(12,12,12)" fill-opacity="1" opacity="1" fill-rule="evenodd" d="M214.005216808653 345.11289541406325L283.54623336843093 304.8780475632759C289.6857122560012 301.46105346019175 297.0716743929122 301.14363930776443 303.48018569924363 304.021379404636L376.153680482435 345.9695635727032C376.9696117289933 346.42079990850544 377.69403066165194 347.02130433500423 378.2894610893078 347.740011100559C379.4227393646525 346.40614599521126 379.8437964565446 344.60555137464706 379.41996634906104 342.9055558011985C378.99613624157746 341.20556022774997 377.77960689204565 339.8154912005197 376.153680482435 339.17332951415995L303.62257107303515 297.1965897408048C297.21850256687014 294.3100756351214 289.83264005207417 294.61690517721775 283.68861874222245 298.0247022941567L214.005216808653 338.43088377667203C209.1071599502247 341.2864443054717 207.85416866085936 345.2842290457913 210.445582463865 348.2825676010309C211.40833171855544 346.9975034464817 212.61885081344377 345.91959815194525 214.005216808653 345.11289541406325L214.005216808653 345.11289541406325Z"/>
                  </g>
                  <g opacity="1">
                    <path fill="rgb(204,255,0)" fill-opacity="1" opacity="1" fill-rule="evenodd" d="M211.1290322580646 355.70702497590867C211.97378988408008 354.83923907532187 212.93170730056244 354.0900030227052 213.97673973389496 353.47968776344493L283.5177562936729 313.2162843073697C289.65802130010616 309.7950759251599 297.0502772852881 309.48798078028705 303.4517086244856 312.3881717540178L376.1536804824352 354.30780031679683C376.65843233503807 354.60641881798773 377.1350180419503 354.95050680042823 377.5775342203504 355.33580210716474C379.09182141818553 354.1107846132264 379.8428318984462 352.1711234714411 379.5496284922174 350.24240497407845C379.2564250859886 348.3136864767157 377.96318440163105 346.6865083449686 376.1536804824352 345.9695635727018L303.6225710730354 304.1641574310747C297.21405976670394 301.2864173342032 289.828097629793 301.6038314866305 283.68861874222273 305.02082558971466L214.00521680865327 345.11289541406194C208.68000382885046 348.19690078516555 207.62635206279325 352.70868642066904 211.1290322580646 355.70702497590867L211.1290322580646 355.70702497590867Z"/>
                  </g>
                </g>
              </g>
            </g>
            <g opacity="1">
              <path fill="rgb(12,12,12)" fill-opacity="1" opacity="1" fill-rule="evenodd" d="M584.9836960044563 601.0213279393552L518.4042952195421 601.0213279393552L499.9226737014029 590.3700871669324C490.38285365737113 584.830299741061 473.7237649237634 585.544189873261 462.70313699229985 591.9120898524842L444.42085499746884 602.591886230195L377.8699312873128 602.591886230195L377.8699312873128 647.4241865323498C377.8354872430747 651.7363913875871 380.3507451977377 655.6598046183129 384.2772731079313 657.4186483831487L462.8739994408497 702.8791720016394C472.4138194848814 708.3904038222228 489.07290821848915 707.7050692953108 500.0935361499527 701.3371693160876L575.8425550070408 657.3900927778607C581.5379699587015 654.0776425644531 584.6134940325984 649.8799685871176 584.8982647801814 645.9678506626619L584.9836960044563 601.0213279393552Z"/>
            </g>
            <g opacity="1">
              <path fill="rgb(27,33,34)" fill-opacity="1" opacity="1" fill-rule="evenodd" d="M575.8710320817995 654.2775318014702L500.1220132247113 698.196052734409C489.10138529324763 704.5925083189203 472.44229655963994 705.2778428458322 462.90247651560816 699.766611025249L384.30575018268956 654.3060874067583C380.3747299557194 652.5372134147077 377.86002264839937 648.6034518106194 377.89840836207117 644.2830699506715L377.89840836207117 647.3956309270632C377.86396431783305 651.7078357823004 380.37922227249607 655.6312490130263 384.3057501826897 657.390092777862L462.90247651560816 702.8506163963526C472.44229655963994 708.361848216936 489.10138529324763 707.676513690024 500.1220132247113 701.3086137108007L575.8710320817995 657.3615371725739C581.5664470334602 654.0490869591663 584.6419711073571 649.8514129818308 584.9267418549401 645.9392950573753L584.9267418549401 642.8552896862716C584.6419711073571 646.7674076107271 581.5949241082186 650.9650815880626 575.8710320817995 654.2775318014702L575.8710320817995 654.2775318014702Z"/>
            </g>
            <g opacity="1">
              <path fill="rgb(27,33,34)" fill-opacity="1" opacity="1" fill-rule="evenodd" d="M382.1130154263001 650.4796362981654L382.1130154263001 605.6758916012986L448.63546206169775 605.6758916012986L466.94622113128713 594.9960952235879C477.9668490627507 588.6281952443646 494.6259377963584 587.9143051121647 504.1657578403902 593.4540925380361L522.6473793585294 604.1053333104587L585.0121730792148 604.1053333104587L585.0121730792148 601.021327939355L518.4042952195421 601.021327939355L499.9226737014029 590.3700871669324C490.38285365737113 584.830299741061 473.7237649237634 585.544189873261 462.70313699229985 591.9120898524842L444.42085499746884 602.591886230195L377.8699312873128 602.591886230195L377.8699312873128 647.4241865323497C377.8354872430747 651.736391387587 380.3507451977377 655.6598046183128 384.2772731079313 657.4186483831486L385.01767705164707 657.8469824624685C383.01373135384347 655.9406449755631 381.9508290054271 653.244713211498 382.1130154263001 650.4796362981654L382.1130154263001 650.4796362981654Z"/>
            </g>
            <g opacity="1">
              <path fill="rgb(204,255,0)" fill-opacity="1" opacity="1" fill-rule="evenodd" d="M462.902476515608 658.0183160941973L384.30575018268945 612.5863480809945C374.76593013865767 607.0465606551231 375.9619672785064 597.3947660677802 386.98259520997 591.0268660885569L462.7031369922999 547.1083451556179C473.7237649237635 540.7118895711067 490.38285365737124 540.0265550441948 499.922673701403 545.5663424700662L578.54787710908 590.9983104832689C588.0876971531118 596.5380979091403 586.8916600132629 606.1898924964831 575.8710320817994 612.5577924757065L500.12201322471117 656.4763134086454C489.2152935922808 662.8727689931568 472.4422965596399 663.5581035200687 462.9024765156081 658.0183160941973L462.902476515608 658.0183160941973Z"/>
            </g>
            <g opacity="1">
              <path fill="rgb(12,12,12)" fill-opacity="1" opacity="1" fill-rule="evenodd" d="M578.5478771090796 590.9983104832688L499.9226737014028 545.4806756542021C494.1377546742787 542.5073233248444 487.6305744181071 541.2399242455404 481.1562814356806 541.8255581773385C485.88251000489265 542.0043298657379 490.5070156515371 543.2539490070716 494.6828919458749 545.4806756542021L573.2796182787934 590.9126436674048C582.8194383228251 596.4524310932761 581.6234011829764 606.104225680619 570.6027732515129 612.4721256598424L494.9107085439414 656.4763134086453C489.23625499497655 659.5992601565547 482.92373192764705 661.377111135264 476.45756410056055 661.6734335710606C484.68562246664834 662.2120201736616 492.89817560258007 660.4105700222816 500.1504902994693 656.4763134086454L575.8995091565574 612.5577924757064C586.8916600132627 606.1898924964831 588.0876971531114 596.5380979091402 578.5478771090796 590.9983104832688L578.5478771090796 590.9983104832688Z"/>
            </g>
            <g opacity="1">
              <path fill="rgb(27,33,34)" fill-opacity="1" opacity="1" fill-rule="evenodd" d="M468.9111392896101 658.0183160941976L390.3144129566916 612.5863480809949C380.77459291265984 607.0465606551235 381.97063005250857 597.3947660677807 392.99125798397216 591.0268660885573L468.71179976630197 547.1083451556184C474.3034425234638 544.0378290550467 480.51357757565705 542.2711610822736 486.8801734620997 541.939780598491C478.4930926306718 541.2940835437303 470.09834216709305 543.0887124994412 462.70313699229985 547.1083451556184L386.98259520997004 591.1696441149974C375.96196727850645 597.5375440942206 374.76593013865767 607.1893386815635 384.30575018268945 612.7291261074349L462.90247651560793 658.1610941206377C468.78826411450007 661.1669920060652 475.40761244355735 662.4251643905567 481.98211660367144 661.7876559922132C477.39838140943147 661.5299186400832 472.9311502674751 660.241681948025 468.91113928961 658.0183160941976L468.9111392896101 658.0183160941976Z"/>
            </g>
            <g opacity="1">
              <path fill="rgb(27,33,34)" fill-opacity="1" opacity="1" fill-rule="evenodd" d="M360.7191059634346 244.19738632628236L296.75959605628424 274.5519947474229L242.31142911840732 240.17104598067482L297.5284770747584 146.2802157937415L360.7191059634346 244.19738632628236Z"/>
            </g>
            <g opacity="1">
              <path fill="rgb(27,33,34)" fill-opacity="1" opacity="1" fill-rule="evenodd" d="M360.7191059634347 254.50595983524852L296.41787115918464 326.2661959239841L240.1471714367763 248.10950425073725L296.7595960562843 284.17523372947704L360.7191059634347 254.50595983524852Z"/>
            </g>
            <g opacity="1">
              <path fill="rgb(12,12,12)" fill-opacity="1" opacity="1" fill-rule="evenodd" d="M296.75959605628424 283.94678888717215L360.7191059634346 254.5059598352475L296.4178711591846 325.9235286605274L296.75959605628424 283.94678888717215Z"/>
            </g>
            <g opacity="1">
              <path fill="rgb(12,12,12)" fill-opacity="1" opacity="1" fill-rule="evenodd" d="M360.7191059634345 244.19738632628236L296.7595960562842 274.5519947474229L297.52847707475837 146.2802157937415L360.7191059634345 244.19738632628236Z"/>
            </g>
          </g>
        </g>
      </g>
    </g>
  </g>
</svg>