<svg xmlns="http://www.w3.org/2000/svg" xmlns:xlink="http://www.w3.org/1999/xlink" height="1214.1138903284354" width="636.8244662183652">
  <g opacity="1">
    <g opacity="1">
      <path fill-opacity="0" stroke="rgb(9,9,9)" stroke-opacity="1" stroke-width="3" stroke-linecap="butt" stroke-linejoin="miter" opacity="1" fill-rule="evenodd" d="M7.126114607309944 7.47713011296498C14.638951786482096 7.1978327601702485 22.18691321513137 7.056945164217725 29.76752105414738 7.056945164217723C360.91653575054755 7.056945164217723 629.7675210541474 275.9079304678177 629.7675210541474 607.0569451642177C629.7675210541474 938.2059598606177 360.91653575054755 1207.0569451642177 29.767521054147494 1207.0569451642177C22.577112012872306 1207.0569451642177 15.416075042546197 1206.9301881818212 8.286524711888035 1206.6787887857472"/>
    </g>
    <g opacity="1">
      <path fill-opacity="0" stroke="rgb(9,9,9)" stroke-opacity="1" stroke-width="3" stroke-linecap="butt" stroke-linejoin="miter" opacity="1" fill-rule="evenodd" d="M7.056945164217666 159.7252794488149C15.237894754000251 159.281644199486 23.47667432437936 159.05694516421772 31.767521054147437 159.05694516421772C280.1292820764475 159.05694516421772 481.7675210541475 360.6951841419177 481.7675210541475 609.0569451642177C481.7675210541475 857.4187061865177 280.1292820764475 1059.0569451642177 31.767521054147494 1059.0569451642177C23.744585615065432 1059.0569451642177 15.770406696674115 1058.8465333942877 7.8502063171405325 1058.430931872595"/>
    </g>
    <g opacity="1">
      <path fill-opacity="0" stroke="rgb(9,9,9)" stroke-opacity="1" stroke-width="3" stroke-linecap="butt" stroke-linejoin="miter" opacity="1" fill-rule="evenodd" d="M8.767521054147437 279.0569451642177C188.13990401469755 279.0569451642177 333.7675210541475 424.6845622036677 333.7675210541475 604.0569451642177C333.7675210541475 783.4293281247678 188.13990401469755 929.0569451642177 8.767521054147494 929.0569451642177"/>
    </g>
  </g>
</svg>