<svg xmlns="http://www.w3.org/2000/svg" xmlns:xlink="http://www.w3.org/1999/xlink" height="12" width="637.6398437499956">
  <defs>
    <rect id="rect-1" opacity="1" x="625.6398437499956" y="0" width="12" height="12"/>
    <mask id="mask-2" maskUnits="userSpaceOnUse" maskContentUnits="userSpaceOnUse">
      <rect opacity="1" x="0" y="0" width="637.6398437499956" height="12" fill="Black"/>
      <use xlink:href="#rect-1" fill="White"/>
    </mask>
  </defs>
  <g opacity="1">
    <g/>
    <g mask="url(#mask-2)">
      <g opacity="1">
        <g opacity="1">
          <path fill="rgb(0,0,0)" fill-opacity="1" opacity="1" fill-rule="evenodd" d="M629.3757827758745 5.8125C630.0449951171831 5.8125 630.587502288814 5.269927978515625 630.587502288814 4.600799560546875C630.587502288814 3.93157958984375 630.0449951171831 3.389068603515625 629.3757827758745 3.389068603515625C628.7065666198687 3.389068603515625 628.1640632629351 3.93157958984375 628.1640632629351 4.600799560546875C628.1649406433062 5.269622802734375 628.7069328308062 5.811614990234375 629.3757827758745 5.8125ZM629.3757827758745 3.86016845703125C629.7860839843706 3.86016845703125 630.118752288814 4.1927490234375 630.118752288814 4.6031494140625C630.118752288814 5.013427734375 629.7860839843706 5.346099853515625 629.3757827758745 5.346099853515625C628.9654052734331 5.346099853515625 628.6328132629351 5.013427734375 628.6328132629351 4.6031494140625C628.6329582214312 4.192840576171875 628.9654777526812 3.860321044921875 629.3757827758745 3.86016845703125Z"/>
        </g>
        <g opacity="1">
          <path fill="rgb(0,0,0)" fill-opacity="1" opacity="1" fill-rule="evenodd" d="M629.3757827758745 6.260162353515625C628.8800056457476 6.256500244140625 628.4041488647417 6.45550537109375 628.0585945129351 6.810943603515625C627.7070320129351 7.169525146484375 627.5148437499956 7.65704345703125 627.5148437499956 8.186737060546875C627.5152099609331 8.316009521484375 627.6199462890581 8.420745849609375 627.7492187499956 8.421112060546875L631.0023429870562 8.421112060546875C631.1316154479937 8.420745849609375 631.2363517761187 8.316009521484375 631.2367179870562 8.186737060546875C631.2367179870562 7.65704345703125 631.0445297241167 7.169525146484375 630.6929672241167 6.810943603515625C630.3474128723101 6.45550537109375 629.8716323852495 6.256500244140625 629.3757827758745 6.260162353515625ZM628.0000007629351 7.952362060546875C628.040139007564 7.645904541015625 628.1782730102495 7.360687255859375 628.3937499999956 7.139068603515625C628.6530998229937 6.87664794921875 629.0067871093706 6.728912353515625 629.3757827758745 6.728912353515625C629.7447746276812 6.728912353515625 630.0984619140581 6.87664794921875 630.3578117370562 7.139068603515625C630.572853851314 7.360931396484375 630.7109878539995 7.64605712890625 630.751564788814 7.952362060546875L628.0000007629351 7.952362060546875Z"/>
        </g>
        <g opacity="1">
          <path fill="rgb(0,0,0)" fill-opacity="1" opacity="1" fill-rule="evenodd" d="M636.0929687499956 1.7578125L627.1867187499956 1.7578125C626.5396240234331 1.75811767578125 626.0151374816851 2.2825927734375 626.0148437499956 2.9296875L626.0148437499956 8.8828125C626.0151374816851 9.5299072265625 626.5396240234331 10.05438232421875 627.1867187499956 10.0546875L636.0929687499956 10.0546875C636.7400634765581 10.05438232421875 637.2645500183062 9.5299072265625 637.2648437499956 8.8828125L637.2648437499956 2.9296875C637.2645500183062 2.2825927734375 636.7400634765581 1.75811767578125 636.0929687499956 1.7578125ZM636.7960937499956 8.8828125C636.7949951171831 9.2706298828125 636.4807861328081 9.5848388671875 636.0929687499956 9.5859375L627.1867187499956 9.5859375C626.7989013671831 9.5848388671875 626.4846923828081 9.2706298828125 626.4835937499956 8.8828125L626.4835937499956 2.9296875C626.4846923828081 2.5418701171875 626.7989013671831 2.2276611328125 627.1867187499956 2.2265625L636.0929687499956 2.2265625C636.4807861328081 2.2276611328125 636.7949951171831 2.5418701171875 636.7960937499956 2.9296875L636.7960937499956 8.8828125Z"/>
        </g>
        <g opacity="1">
          <path fill="rgb(0,0,0)" fill-opacity="1" opacity="1" fill-rule="evenodd" d="M635.5164077758745 5.671875L632.7859390258745 5.671875C632.656521606441 5.671875 632.5515640258745 5.776763916015625 632.5515640258745 5.90625C632.5515640258745 6.035736083984375 632.656521606441 6.140625 632.7859390258745 6.140625L635.5164077758745 6.140625C635.6458251953081 6.140625 635.7507827758745 6.035736083984375 635.7507827758745 5.90625C635.7507827758745 5.776763916015625 635.6458251953081 5.671875 635.5164077758745 5.671875L635.5164077758745 5.671875Z"/>
        </g>
        <g opacity="1">
          <path fill="rgb(0,0,0)" fill-opacity="1" opacity="1" fill-rule="evenodd" d="M635.5164077758745 7.171875L632.7859390258745 7.171875C632.656521606441 7.171875 632.5515640258745 7.276763916015625 632.5515640258745 7.40625C632.5515640258745 7.535736083984375 632.656521606441 7.640625 632.7859390258745 7.640625L635.5164077758745 7.640625C635.6458251953081 7.640625 635.7507827758745 7.535736083984375 635.7507827758745 7.40625C635.7507827758745 7.276763916015625 635.6458251953081 7.171875 635.5164077758745 7.171875L635.5164077758745 7.171875Z"/>
        </g>
        <g opacity="1">
          <path fill="rgb(0,0,0)" fill-opacity="1" opacity="1" fill-rule="evenodd" d="M635.5164077758745 4.171875L632.7859390258745 4.171875C632.656521606441 4.171875 632.5515640258745 4.276763916015625 632.5515640258745 4.40625C632.5515640258745 4.535736083984375 632.656521606441 4.640625 632.7859390258745 4.640625L635.5164077758745 4.640625C635.6458251953081 4.640625 635.7507827758745 4.535736083984375 635.7507827758745 4.40625C635.7507827758745 4.276763916015625 635.6458251953081 4.171875 635.5164077758745 4.171875L635.5164077758745 4.171875Z"/>
        </g>
      </g>
    </g>
  </g>
</svg>