<svg xmlns="http://www.w3.org/2000/svg" xmlns:xlink="http://www.w3.org/1999/xlink" height="11.157177058395064" width="10">
  <defs>
    <rect id="rect-1" opacity="1" x="0" y="0.5778078484436264" width="10.000000000000227" height="9.999999999999986"/>
    <mask id="mask-2" maskUnits="userSpaceOnUse" maskContentUnits="userSpaceOnUse">
      <rect opacity="1" x="0" y="0" width="10" height="11.157177058395064" fill="Black"/>
      <use xlink:href="#rect-1" fill="White"/>
    </mask>
  </defs>
  <g opacity="1">
    <g/>
    <g mask="url(#mask-2)">
      <g opacity="1">
        <g opacity="1">
          <g opacity="1">
            <g opacity="1">
              <path fill="rgb(27,33,34)" fill-opacity="1" opacity="1" fill-rule="evenodd" d="M3.57699594045938 0.7862183824293586C2.4518996564997435 1.120641199125515 1.4804621630053958 1.840491308420815 0.8330384094923188 2.819548246070438C0.7441240761936805 2.979972936400404 0.6886020609964273 3.156719059019327 0.6698240866027556 3.339169355678011L0.6698240866027556 1.5837826584780668L0.0036431768494367134 1.5837826584780668L0.0036431768494367134 4.248506297491265L2.6683668158627123 4.248506297491265L2.6683668158627123 3.582325387737966L1.162797959820212 3.582325387737966C1.9086707609027715 2.147434162589648 3.382970750493726 1.2387842198395767 4.9999999999993285 1.217383158113752C6.917664203184546 1.2396794004370582 8.598542729259318 2.5050692203600207 9.150307067762505 4.341771624856728L9.78984074112569 4.151910065577037C9.003622358696195 1.5068595815549906 6.222046424481501 -1.1368683772161603e-13 3.57699594045938 0.7862183824293586L3.57699594045938 0.7862183824293586Z"/>
            </g>
          </g>
        </g>
        <g opacity="1">
          <g opacity="1">
            <g opacity="1">
              <path fill="rgb(27,33,34)" fill-opacity="1" opacity="1" fill-rule="evenodd" d="M7.331633184136297 6.913229936504455L7.331633184136297 7.579410846257756L8.837202040178795 7.579410846257756C8.091329239096236 9.014302071406076 6.617029249505284 9.922952014156149 4.99999999999968 9.944353075881974C3.0823357968144633 9.922056833558667 1.401457270739691 8.656667013635703 0.8496929322365043 6.819964609138992L0.21015925887331832 7.009826168418683C0.9997501821584394 9.653856562922673 3.7832622046421025 11.157177058394716 6.427292599146165 10.367586135109617C7.5853648381385925 10.021754970333934 8.578827937961659 9.267846362027495 9.223586967835722 8.245591756011056C9.29266160091577 8.115228479233707 9.32923909649191 7.970105131674636 9.330175913396253 7.822566878317709L9.330175913396253 9.577953575517657L9.996356823149572 9.577953575517657L9.996356823149572 6.913229936504454L7.331633184136297 6.913229936504454L7.331633184136297 6.913229936504455Z"/>
            </g>
          </g>
        </g>
      </g>
    </g>
  </g>
</svg>