<svg xmlns="http://www.w3.org/2000/svg" xmlns:xlink="http://www.w3.org/1999/xlink" height="11.157177058395064" width="10.934579439252047">
  <defs>
    <rect id="rect-1" opacity="1" x="4.547473508864641e-13" y="0.5778078484437401" width="10.934579439252275" height="10"/>
    <mask id="mask-2" maskUnits="userSpaceOnUse" maskContentUnits="userSpaceOnUse">
      <rect opacity="1" x="0" y="0" width="10.934579439252047" height="11.157177058395064" fill="Black"/>
      <use xlink:href="#rect-1" fill="White"/>
    </mask>
  </defs>
  <g opacity="1">
    <g/>
    <g mask="url(#mask-2)">
      <g opacity="1">
        <g opacity="1">
          <g opacity="1">
            <g opacity="1">
              <path fill="rgb(27,33,34)" fill-opacity="1" opacity="1" fill-rule="evenodd" d="M3.911294626484751 0.7862183824294732C2.6810491571083612 1.12064119912563 1.6188231128201793 1.840491308420931 0.910892466455433 2.819548246070555C0.8136683823812237 2.979972936400521 0.7529573938010515 3.1567190590194443 0.7324244685294671 3.339169355678129L0.7324244685294671 1.5837826584781822L0.003983660668382072 1.5837826584781822L0.003983660668382072 4.248506297491384L2.917746892112722 4.248506297491384L2.917746892112722 3.582325387738084L1.2714706663466704 3.582325387738084C2.087051205848138 2.147434162589764 3.6991362411952102 1.238784219839692 5.46728971962652 1.2173831581138672C7.564174876380389 1.2396794004371732 9.402144853490135 2.5050692203601375 10.00547595260108 4.341771624856847L10.70477912814772 4.151910065577156C9.845082392220165 1.506859581555106 6.803546090321942 0 3.911294626484751 0.7862183824294732L3.911294626484751 0.7862183824294732Z"/>
            </g>
          </g>
        </g>
        <g opacity="1">
          <g opacity="1">
            <g opacity="1">
              <path fill="rgb(27,33,34)" fill-opacity="1" opacity="1" fill-rule="evenodd" d="M8.016832547140464 6.913229936504568L8.016832547140464 7.57941084625787L9.663108772906513 7.57941084625787C8.847528233405047 9.014302071406194 7.2354431980579745 9.922952014156268 5.467289719626665 9.944353075882091C3.370404562872795 9.922056833558786 1.5324345857630497 8.65666701363582 0.9291034866521056 6.819964609139106L0.22980031110546406 7.0098261684187975C1.0931847786228148 9.653856562922792 4.136838111618884 11.157177058394836 7.0279741504690385 10.367586135109736C8.294277439834554 10.021754970334051 9.380587558332643 9.267846362027612 10.085604441465945 8.245591756011171C10.16113464773104 8.115228479233823 10.201130600837661 7.970105131674751 10.202154970723717 7.822566878317825L10.202154970723717 9.577953575517775L10.930595778584802 9.577953575517775L10.930595778584802 6.9132299365045675L8.016832547140464 6.9132299365045675L8.016832547140464 6.913229936504568Z"/>
            </g>
          </g>
        </g>
      </g>
    </g>
  </g>
</svg>