<svg xmlns="http://www.w3.org/2000/svg" xmlns:xlink="http://www.w3.org/1999/xlink" height="614.3625957873373" width="255.99999999999994">
  <defs>
    <rect id="rect-1" opacity="1" x="53.99999999999994" y="64.36259578733734" width="202" height="549.9999999999999"/>
    <mask id="mask-2" maskUnits="userSpaceOnUse" maskContentUnits="userSpaceOnUse">
      <rect opacity="1" x="0" y="0" width="255.99999999999994" height="614.3625957873373" fill="Black"/>
      <use xlink:href="#rect-1" fill="White"/>
    </mask>
    <path id="path-14" opacity="1" fill-rule="evenodd" d="M121.5319519042967 278.13945125608734L72.17022705078108 249.83134578733734C68.65249633789045 247.79325984983734 69.10638427734358 244.16996883421234 73.16314697265608 241.93364070921234L120.5390319824217 214.50322078733734C124.76199340820295 212.17094539671234 129.8394470214842 211.96122859983734 134.24111938476545 213.93705867796234L183.6028747558592 242.24492000608734C187.1205749511717 244.25468563108734 186.66665649414045 247.90654109983734 182.6099548339842 250.14286922483734L135.23403930664045 277.43168758421234C131.04165649414045 279.83622859983734 125.95071411132795 280.09916805296234 121.5319519042967 278.13945125608734Z"/>
    <mask id="mask-15" maskUnits="userSpaceOnUse" maskContentUnits="userSpaceOnUse">
      <rect opacity="1" x="0" y="0" width="255.99999999999994" height="614.3625957873373" fill="Black"/>
      <use xlink:href="#path-14" fill="White"/>
    </mask>
    <linearGradient id="linearGradient-19" x1="0.008461596501194196" y1="0.5083074002610859" x2="0.9987101470409654" y2="0.5083074002610859">
      <stop offset="0.01" stop-color="rgb(37,191,236)" stop-opacity="1"/>
      <stop offset="0.05" stop-color="rgb(36,180,225)" stop-opacity="1"/>
      <stop offset="0.22" stop-color="rgb(31,131,176)" stop-opacity="1"/>
      <stop offset="0.39" stop-color="rgb(27,90,134)" stop-opacity="1"/>
      <stop offset="0.56" stop-color="rgb(23,58,102)" stop-opacity="1"/>
      <stop offset="0.72" stop-color="rgb(21,35,80)" stop-opacity="1"/>
      <stop offset="0.87" stop-color="rgb(19,22,66)" stop-opacity="1"/>
      <stop offset="1" stop-color="rgb(19,17,61)" stop-opacity="1"/>
    </linearGradient>
    <linearGradient id="linearGradient-37" x1="0.5001221597849987" y1="0.9982098719053819" x2="0.5001221597849987" y2="0">
      <stop offset="0.01" stop-color="rgb(255,255,255)" stop-opacity="1"/>
      <stop offset="0.08" stop-color="rgb(249,255,224)" stop-opacity="1"/>
      <stop offset="0.22" stop-color="rgb(237,255,165)" stop-opacity="1"/>
      <stop offset="0.37" stop-color="rgb(227,255,115)" stop-opacity="1"/>
      <stop offset="0.51" stop-color="rgb(219,255,74)" stop-opacity="1"/>
      <stop offset="0.64" stop-color="rgb(212,255,41)" stop-opacity="1"/>
      <stop offset="0.77" stop-color="rgb(208,255,19)" stop-opacity="1"/>
      <stop offset="0.89" stop-color="rgb(205,255,5)" stop-opacity="1"/>
      <stop offset="1" stop-color="rgb(204,255,0)" stop-opacity="1"/>
    </linearGradient>
  </defs>
  <g opacity="1">
    <g/>
    <g mask="url(#mask-2)">
      <g opacity="1">
        <g opacity="1">
          <g opacity="1">
            <g opacity="1">
              <g opacity="1">
                <path fill="rgb(204,255,0)" fill-opacity="1" opacity="1" fill-rule="evenodd" d="M116.11347885672875 540.3563446900675L24.59574836027489 487.61858349464137C18.07092566523943 483.88193052749364 18.921989495026665 477.31447985796126 26.41135119715432 473.01166735033655L114.35461360850178 422.368696454675C121.87234410495569 418.03757597002647 133.24823062977836 417.5846483376449 139.88652850211878 421.32130130479266L231.4042589985726 474.05906250021883C237.92908169360805 477.79571546736656 237.07801786382083 484.3348581598751 229.5886561616932 488.66597864452365L141.6453937503457 539.3089495401853C133.9858192822606 543.6400700248338 122.60993275743793 544.0929976572153 116.11347885672869 540.3563446900675L116.11347885672875 540.3563446900675Z"/>
              </g>
              <g opacity="1">
                <path fill="rgb(27,33,34)" fill-opacity="1" opacity="1" fill-rule="evenodd" d="M113.47518920898439 551.8777325060873C117.64309692382814 554.0579082873373 122.30331420898439 555.1301739123373 127.00711059570314 554.9915020373373C133.10012817382815 555.0474102404623 139.1061706542969 553.5466778185873 144.45388793945315 550.6321270373373L247.9716491699219 491.01567195921234C252.9928894042969 488.12822078733734 255.8298034667969 484.22172664671234 255.8298034667969 480.31523250608734C255.6514587402344 476.65727352171234 253.4711608886719 473.39384578733734 250.15603637695315 471.82280086546234L142.35464477539065 409.71513484983734C134.4113464355469 405.12919734983734 120.51065063476564 405.69535945921234 111.37588500976564 410.96074031858734L7.858154296875001 470.57719539671234C2.836883544921875 473.46464656858734 0 477.34282039671234 0 481.27763484983734C0.19058227539062503 484.93144344358734 2.3670654296875004 488.18925594358734 5.67376708984375 489.77006649046234L113.47518920898439 551.8777325060873ZM112.39718627929689 412.91386531858734C117.41256713867189 410.17314266233734 123.04794311523439 408.76005672483734 128.7659606933594 408.80937313108734C133.1178894042969 408.64872859983734 137.4374694824219 409.61406063108734 141.30496215820315 411.61186336546234L249.1064147949219 473.71952938108734C251.7333679199219 474.89286922483734 253.51492309570315 477.39701961546234 253.7588806152344 480.25859188108734C253.7588806152344 483.42900203733734 251.29080200195315 486.59965633421234 246.9787292480469 489.09062313108734L143.37588500976565 548.7639629748373C134.8368835449219 553.6895000842123 121.90072631835939 554.2556621935873 114.55319213867189 550.0095684435873L6.751800537109376 487.90165828733734C4.124816894531251 486.72831844358734 2.3432617187500004 484.22441219358734 2.0993041992187504 481.36259578733734C2.0993041992187504 478.19218563108734 4.567382812500001 475.02153133421234 8.879455566406252 472.53056453733734L112.39718627929689 412.91386531858734Z"/>
              </g>
              <g opacity="1">
                <path fill="rgb(12,12,12)" fill-opacity="1" opacity="1" fill-rule="evenodd" d="M235.63120935318315 246.03830757313813L190.24113843119733 246.03830757313813L139.65957814750936 216.93770719262386C133.16312424680018 213.20105422547613 121.78723772197746 213.65398185785767 114.12766325389234 217.9851023425062L65.58865616169376 246.03830757313813L20.19858523970792 246.03830757313813L20.19858523970792 377.10424119354775C20.158266503920515 380.031085617609 21.879741514693812 382.69699791920084 24.567379565949114 383.86984770224717L116.08511006240298 436.60760889767323C122.58156396311222 440.34426186482096 133.9574504879349 439.89133423243936 141.61702495602 435.5602137477909L229.56028736736755 384.9455508291532C232.74169423342155 383.47279594017743 235.0062871589205 380.5478078792325 235.6312093531832 377.10424119354775L235.63120935318315 246.03830757313813Z"/>
              </g>
              <g opacity="1">
                <path fill="rgb(27,33,34)" fill-opacity="1" opacity="1" fill-rule="evenodd" d="M229.36170580708384 382.8507605293896L141.4184433957363 433.4654234480273C133.90071289928238 437.7965439326759 122.5248263744597 438.2494715650574 115.88652850211928 434.5128185979097L24.595748360275266 381.77505740248347C21.90811030901998 380.60220761943714 20.1866352982467 377.93629531784535 20.226954034034136 375.00945089378416L20.226954034034136 377.1042411935489C20.186635298246728 380.0310856176101 21.908110309020028 382.6969979192019 24.59574836027533 383.86984770224825L116.1134788567292 436.60760889767437C122.60993275743841 440.3442618648221 133.9858192822611 439.89133423244056 141.64539375034622 435.560213747792L229.58865616169376 384.9455508291543C232.7591296694226 383.46565412179575 235.0121992010859 380.54188741781314 235.63120935318312 377.1042411935488L235.63120935318312 375.0094508937841C234.96535737898085 378.4950730896978 232.61969930156573 381.42880319273206 229.3617058070839 382.8507605293896L229.36170580708384 382.8507605293896Z"/>
              </g>
              <g opacity="1">
                <path fill="rgb(27,33,34)" fill-opacity="1" opacity="1" fill-rule="evenodd" d="M23.092202260984504 379.19903149331265L23.092202260984504 248.13309787290285L68.48227318297032 248.13309787290285L117.13475545247388 220.16481657334236C124.65248594892776 215.83369608869384 136.0283724737505 215.3807684563123 142.6666703460909 219.11742142346003L193.07801786382137 248.1330978729028L235.6312093531831 248.1330978729028L235.6312093531831 246.03830757313818L190.24113843119727 246.03830757313818L139.65957814750936 216.93770719262386C133.16312424680012 213.20105422547613 121.78723772197743 213.65398185785767 114.12766325389232 217.9851023425062L65.58865616169373 246.03830757313818L20.19858523970792 246.03830757313818L20.19858523970792 377.104241193548C20.158266503920515 380.03108561760916 21.879741514693812 382.69699791920107 24.567379565949114 383.86984770224734L25.078017863821394 384.1812354495096C23.71037813221983 382.8951944461088 22.983314865163024 381.07106864089246 23.092202260984504 379.19903149331265L23.092202260984504 379.19903149331265Z"/>
              </g>
              <g opacity="1">
                <path fill="rgb(27,33,34)" fill-opacity="1" opacity="1" fill-rule="evenodd" d="M232.99291148084234 248.47279359718792L232.99291148084234 379.3688793554548C232.79608568636957 381.10826711389075 232.03961485187457 382.73715202430003 230.83688311204804 384.01138758736556C233.39939861579376 382.55079098488375 235.16191755182518 380.0115444462158 235.63120935318273 377.104241193547L235.63120935318273 246.3496953203994C234.66989981149845 246.94963035434932 233.7841454776225 247.66241700350872 232.9929114808423 248.47279359718792L232.99291148084234 248.47279359718792Z"/>
              </g>
              <g opacity="1">
                <path fill="rgb(27,33,34)" fill-opacity="1" opacity="1" fill-rule="evenodd" d="M116.11347885672879 305.56998325428697L24.595748360274893 252.83222205886074C18.07092566523943 249.095569091713 18.921989495026665 242.52811842218057 26.411351197154325 238.19699793753202L114.35461360850184 187.5823350188943C121.87234410495576 183.25121453424578 133.24823062977842 182.79828690186423 139.88652850211884 186.53493986901196L231.17730864396285 239.2727010644382C237.7021313389983 243.00935403158593 236.85106750921108 249.5484967240945 229.3617058070834 253.879617208743L141.4184433957359 304.5225881044046C133.98581928226076 308.85370858905316 122.60993275743805 309.3066362214347 116.11347885672879 305.56998325428697L116.11347885672879 305.56998325428697Z"/>
              </g>
              <g opacity="1">
                <path fill="rgb(27,33,34)" fill-opacity="1" opacity="1" fill-rule="evenodd" d="M231.17730864396364 239.27270106443513L139.6595781475098 186.53493986900887C135.71493439411933 184.52053868737883 131.27775231568972 183.66642060421646 126.86525190637508 184.0721458679342C130.0862315572977 184.1828027873174 133.23948685381527 185.025095379752 136.0851100624034 186.53493986900887L227.60284055885725 239.27270106443513C234.1276632538927 243.00935403158286 233.27659942410548 249.54849672409142 225.78723772197782 253.87961720873994L137.84397531063036 304.52258810440156C133.9831210882808 306.58003013111903 129.7066117079425 307.7412114527928 125.33333701275802 307.91954534726324C130.94643719938261 308.2830956753086 136.54907947360525 307.0668881700448 141.50354977871547 304.4093561963062L229.44681219006293 253.7663853006446C236.8794363035381 249.54849672409148 237.7021313389991 243.0093540315829 231.17730864396364 239.27270106443513L231.17730864396364 239.27270106443513Z"/>
              </g>
              <g opacity="1">
                <path fill="rgb(27,33,34)" fill-opacity="1" opacity="1" fill-rule="evenodd" d="M119.12057105531068 290.36859959248125L51.03546467233191 251.1054354604058C46.184400842544676 248.27463775802113 46.808514317721986 243.43397368694338 52.39716679999149 240.20686430622482L117.75886892765111 202.52894688748484C123.57541688145368 199.2934468576225 130.58430610548453 198.99941055440922 136.6524859489277 201.73632353081712L204.73759233190646 240.99948766289253C209.58865616169368 243.8302853652772 208.96454268651638 248.670949436355 203.37589020424687 251.89805881707352L138.0141880765873 289.5759762358135C132.19764012278466 292.8114762656758 125.18875089875381 293.10551256888914 119.12057105531063 290.36859959248125L119.12057105531068 290.36859959248125Z"/>
              </g>
              <g opacity="1">
                <path fill="rgb(204,255,0)" fill-opacity="1" opacity="1" fill-rule="evenodd" d="M121.53191857304105 278.1395535181788L72.17021644538147 249.83157649433218C68.65248594892756 247.79340214861523 69.10638665814743 244.16998108956287 73.16312424679991 241.93365090467896L120.5390107716226 214.5032211685716C124.76197614112752 212.17113112464938 129.83941237408075 211.9613360449457 134.24113843119707 213.9370616280947L183.60284055885666 242.24503865194126C187.12057105531056 244.25490502063437 186.6666703460907 247.90663405671057 182.60993275743823 250.14296424159448L135.23404623261553 277.4318540925826C131.04163882999205 279.83643880977695 125.95071247547102 280.09937940895674 121.53191857304103 278.1395535181788L121.53191857304105 278.1395535181788Z"/>
              </g>
              <g opacity="1">
                <path fill="rgb(12,12,12)" fill-opacity="1" opacity="1" fill-rule="evenodd" d="M120.1985852397078 305.5699832542874L28.68085474325391 252.8322220588612C22.184400842544694 249.09556909171343 23.007095878005686 242.528118422181 30.52482637445958 238.19699793753244L118.46808878580708 187.5823350188947C122.22732657450281 185.53429855951504 126.39180538717389 184.3359536310176 130.66667034609077 184.07214586793773C124.94991493903707 183.6553301048607 119.23251328550035 184.8729513342424 114.1844008425447 187.5823350188947L26.241138431197164 238.19699793753244C18.72340793474327 242.528118422181 17.90071289928227 249.0955690917134 24.42553559431773 252.8322220588612L115.94326609077163 305.5699832542874C119.95646313912721 307.5909501270137 124.46164643617841 308.43508801670623 128.93617389219008 308.0044692783382C125.88182856389302 307.83096536989996 122.90119395752853 307.0004944493062 120.1985852397078 305.56998325428737L120.1985852397078 305.5699832542874Z"/>
              </g>
              <g opacity="1">
                <g/>
                <g mask="url(#mask-15)">
                  <g opacity="1">
                    <g opacity="1">
                      <path fill="rgb(12,12,12)" fill-opacity="1" opacity="1" fill-rule="evenodd" d="M73.13475545247363 245.64199589480032L120.53901077162256 218.32479806678828C124.75438806285806 215.96585488243105 129.84474965004603 215.75552573876334 134.241138431197 217.7586385263114L183.63120935318284 246.066615550158C184.31278882642155 246.45640533652318 184.90284308272405 246.9872809277976 185.36170580708352 247.62355428646953C185.95698504886943 246.6999708681808 186.1078263986097 245.55937342076555 185.7730275386441 244.5133161595078C185.4382286786785 243.46725889825012 184.65277359278414 242.62504700495802 183.63120935318278 242.21673067491486L134.24113843119704 213.9087536510682C129.84474965004605 211.90564086352015 124.75438806285808 212.11597000718785 120.53901077162257 214.47491319154514L73.13475545247366 241.820418996581C69.98581928226089 243.63212952610718 69.04964906949493 246.1798474582534 70.29787601984954 248.16140584992263C71.01375184669875 247.0948381752812 71.99006498208458 246.22778228128698 73.13475545247366 245.64199589480032L73.13475545247363 245.64199589480032Z"/>
                    </g>
                    <g opacity="1">
                      <path fill="rgb(12,12,12)" fill-opacity="1" opacity="1" fill-rule="evenodd" d="M73.13475545247434 250.31281210374019L120.53901077162327 222.99561427572814C124.75438806285877 220.6366710913709 129.84474965004677 220.42634194770318 134.24113843119773 222.42945473525126L183.63120935318358 250.73743175909786C184.18213118493827 251.04234587599927 184.67247833977606 251.44529547673307 185.07801786382186 251.92636679409944C185.85997760382145 251.02251663872312 186.15385357713623 249.79626980274324 185.86628273132598 248.63719929670887C185.57871188551576 247.4781287906745 184.74544582037788 246.53033345308899 183.63120935318358 246.094923527187L134.24113843119775 217.78694650334035C129.84474965004677 215.7838337157923 124.75438806285881 215.99416285946 120.53901077162328 218.3531060438173L73.13475545247434 245.64199589480546C69.78723772197787 247.56693833242707 68.93617389219065 250.2845041267163 70.69503914041759 252.32267847243327C71.36927772885399 251.50050500963977 72.19805165586166 250.81775151288662 73.13475545247434 250.31281210374016L73.13475545247434 250.31281210374019Z"/>
                    </g>
                    <g opacity="0.2">
                      <path fill="url(#linearGradient-19)" opacity="1" fill-rule="evenodd" d="M71.09220226098422 257.5030382677911C71.66057005433298 256.8944977144279 72.32107990017163 256.37868514533466 73.04964906949486 255.9744075085034L120.53901077162256 228.65720968049166C124.75438806285806 226.29826649613443 129.84474965004605 226.08793735246672 134.24113843119702 228.09105014001477L183.6312093531829 256.39902716386115C183.97377750629727 256.60493288153594 184.2966492922332 256.8418296537431 184.5957483602751 257.1067265894573C185.62620488841674 256.27237452704384 186.13717429730178 254.95613877856974 185.93889803641764 253.64682940471585C185.74062177553347 252.3375200308619 184.86271639885976 251.2307087635835 183.6312093531829 250.73743175909186L134.24113843119704 222.42945473524543C129.84474965004605 220.42634194769744 124.75438806285811 220.63667109136514 120.53901077162257 222.9956142757224L73.13475545247361 250.3128121037342C69.50354977871474 252.4076024034988 68.79432992055871 255.43655594505037 71.09220226098425 257.50303826779117L71.09220226098422 257.5030382677911Z"/>
                    </g>
                  </g>
                </g>
              </g>
              <g opacity="1">
                <path fill="rgb(204,255,0)" fill-opacity="1" opacity="1" fill-rule="evenodd" d="M159.43262779289938 402.1001849056017L154.38298240282847 404.9309826079864C153.07801786382137 405.66699001060636 152.0000036794242 404.9309826079864 152.0000036794242 403.147580055484L152.0000036794242 332.37763749586753C152.03549133696768 330.5854850793731 152.91939389139245 328.9159706267091 154.38298240282847 327.8766691490759L159.43262779289938 325.04587144669125C160.73759233190646 324.2815560670474 161.81560651630366 325.04587144669125 161.81560651630366 326.82927399919356L161.81560651630366 397.5992165588101C161.78011885876015 399.3913689753046 160.8962163043354 401.0608834279685 159.43262779289944 402.1001849056017L159.43262779289938 402.1001849056017Z"/>
              </g>
              <g opacity="1">
                <path fill="rgb(27,33,34)" fill-opacity="1" opacity="1" fill-rule="evenodd" d="M159.4326277928994 325.10248740074206L158.24113843119727 325.78187884931435L158.24113843119727 395.249654465834C158.20565077365376 397.04180688232844 157.321748219229 398.71132133499236 155.858159707793 399.7506228126256L152.0000036794242 401.9586450204857L152.0000036794242 403.2608119635826C152.0000036794242 404.9875985620373 153.07801786382137 405.78022191870497 154.38298240282847 405.04421451608493L159.4326277928994 402.2134168137003C160.89621630433544 401.174115336067 161.78011885876018 399.5046008834031 161.81560651630366 397.7124484669086L161.81560651630366 326.9425059072921C161.87234410495614 325.13079537776593 160.7375923319065 324.3381720210982 159.4326277928994 325.10248740074206L159.4326277928994 325.10248740074206Z"/>
              </g>
              <g opacity="1">
                <path fill="rgb(204,255,0)" fill-opacity="1" opacity="1" fill-rule="evenodd" d="M178.15603204821878 391.3431536365432L173.0780178638216 394.17395133892785C171.77305332481453 394.93826671857175 170.69503914041735 394.17395133892785 170.69503914041735 392.39054878642554L170.69503914041735 321.6206062268089C170.72157906586364 319.81841575592335 171.60647208590103 318.13651865570955 173.07801786382157 317.09132990299344L178.15603204821878 314.2605322006088C179.46099658722585 313.49621682096495 180.51064197729679 314.2605322006088 180.51064197729679 316.0439347531111L180.51064197729679 386.81387731272775C180.49069047322507 388.6109821057015 179.61684453738772 390.29189309608375 178.15603204821878 391.3431536365433L178.15603204821878 391.3431536365432Z"/>
              </g>
              <g opacity="1">
                <path fill="rgb(204,255,0)" fill-opacity="1" opacity="1" fill-rule="evenodd" d="M196.85106750921184 380.55781439045603L191.7730533248146 383.38861209284073C190.4680887858075 384.1529274724846 189.41844339573657 383.38861209284073 189.41844339573657 381.60520954033836L189.41844339573657 310.8352669807219C189.44732951674615 309.04818311606954 190.32019802222584 307.3796462320796 191.77305332481464 306.33429863393025L196.85106750921184 303.5035009315456C198.15603204821892 302.76749352892557 199.20567743828985 303.5035009315456 199.20567743828985 305.3152114610718L199.20567743828985 376.08515402068826C199.16792296938283 377.86220367455974 198.2960234204307 379.5184060505276 196.85106750921184 380.55781439045614L196.85106750921184 380.55781439045603Z"/>
              </g>
              <g opacity="1">
                <path fill="rgb(204,255,0)" fill-opacity="1" opacity="1" fill-rule="evenodd" d="M215.5461029702045 369.800783121396L210.46808878580728 372.6315808237807C209.1631242468002 373.3675882264007 208.11347885672927 372.6315808237807 208.11347885672927 370.84817827127836L208.11347885672927 300.0782357116619C208.14236497773885 298.29115184700953 209.01523348321854 296.62261496301966 210.46808878580734 295.57726736487024L215.5461029702045 292.7464696624856C216.85106750921156 291.98215428284175 217.9007128992825 292.7464696624856 217.9007128992825 294.5298722149879L217.9007128992825 365.29981477460444C217.87182677827298 367.0868986392568 216.9989582727933 368.7554355232466 215.54610297020454 369.800783121396L215.5461029702045 369.800783121396Z"/>
              </g>
              <g opacity="1">
                <path fill="rgb(27,33,34)" fill-opacity="1" opacity="1" fill-rule="evenodd" d="M178.15603204821878 314.31714815465466L176.9361738921904 315.0248475802508L176.9361738921904 384.3510833116511C176.90068623464688 386.1432357281456 176.01678368022215 387.81275018080953 174.55319516878617 388.85205165844275L170.69503914041735 391.0883818433266L170.69503914041735 392.3622408093996C170.69503914041735 394.0890274078543 171.7730533248145 394.90995874154584 173.0780178638216 394.145643361902L178.15603204821878 391.3148456595173C179.61684453738772 390.2635851190577 180.49069047322507 388.5826741286755 180.51064197729679 386.7855693357019L180.51064197729679 316.01562677608536C180.51064197729679 314.3737641087023 179.46099658722585 313.58114075203457 178.15603204821878 314.3171481546546L178.15603204821878 314.31714815465466Z"/>
              </g>
              <g opacity="1">
                <path fill="rgb(27,33,34)" fill-opacity="1" opacity="1" fill-rule="evenodd" d="M196.85106750921187 303.5318089085676L195.63120935318346 304.23950833416376L195.63120935318346 373.6789759736596C195.6112578491117 375.47608076663334 194.73741191327434 377.1569917570156 193.27659942410537 378.20825229747516L189.41844339573657 380.4162745053351L189.41844339573657 381.69013347140816C189.41844339573657 383.44522804688665 190.4680887858075 384.2378514035544 191.7730533248146 383.47353602391047L196.85106750921187 380.6427383215258C198.30392281180065 379.5973907233764 199.17679131728036 377.92885383938653 199.20567743828994 376.1417699747342L199.20567743828994 305.3718274151176C199.2056774382899 303.5884248626153 198.15603204821895 302.79580150594757 196.85106750921187 303.53180890856754L196.85106750921187 303.5318089085676Z"/>
              </g>
              <g opacity="1">
                <path fill="rgb(27,33,34)" fill-opacity="1" opacity="1" fill-rule="evenodd" d="M215.5461029702045 292.7747776395072L214.3262448141761 293.48247706510335L214.3262448141761 362.9219447045991C214.2973586931665 364.7090285692516 213.4244901876868 366.3775654532414 211.97163488509807 367.4229130513908L208.11347885672927 369.6592432362746L208.11347885672927 370.93310220234764C208.11347885672927 372.6598888008024 209.1631242468002 373.45251215747 210.46808878580728 372.71650475485L215.5461029702045 369.88570705246536C217.00691545937346 368.8344465120058 217.88076139521078 367.1535355216235 217.9007128992825 365.3564307286499L217.9007128992825 294.5864881690333C217.9007128992825 292.8313935935548 216.85106750921156 292.0104622598633 215.5461029702045 292.77477763950714L215.5461029702045 292.7747776395072Z"/>
              </g>
              <g opacity="1">
                <path fill="rgb(204,255,0)" fill-opacity="1" opacity="1" fill-rule="evenodd" d="M106.69503784179682 410.25297664671234C107.26565551757807 410.58232234983734 107.90859985351557 410.76713680296234 108.56741333007807 410.79081844358734C109.03732299804682 410.79277156858734 109.49868774414057 410.66557430296234 109.90072631835932 410.42265438108734C111.07632446289057 409.59452938108734 111.71548461914057 408.19999813108734 111.57449340820307 406.77104305296234L111.57449340820307 331.95292781858734C111.54275512695307 328.86308406858734 110.00875854492182 325.98124813108734 107.4609985351562 324.22490047483734L41.39007568359369 286.15068172483734C40.43814086914057 285.50492977171234 39.20895385742182 285.42900203733734 38.18441772460932 285.95268367796234C36.99920654296869 286.77275203733734 36.35729980468744 288.17314266233734 36.51065063476557 289.60429500608734L36.51065063476557 364.53544734983734C36.57229614257807 367.57988094358734 38.09100341796869 370.41093563108734 40.59576416015619 372.15043758421234L106.69503784179682 410.25297664671234ZM109.10635375976557 409.09208797483734C108.56057739257807 409.31498836546234 107.93801879882807 409.24003719358734 107.46096801757807 408.89408992796234L41.39007568359369 370.93290828733734C39.34143066406244 369.43632625608734 38.11312866210932 367.06865047483734 38.07092285156244 364.53544734983734L38.07092285156244 289.60429500608734C37.96240234374994 288.73295711546234 38.29144287109369 287.86454891233734 38.95034790039057 287.28300594358734C39.49618530273432 287.06010555296234 40.11871337890619 287.13505672483734 40.59573364257807 287.48100399046234L106.69503784179682 325.55522274046234C108.73348999023432 327.06083797483734 109.95895385742182 329.42289852171234 110.01419067382807 331.95292781858734L110.01419067382807 406.77079891233734C110.12625122070307 407.64824031858734 109.78433227539057 408.52250789671234 109.10635375976557 409.09208797483734Z"/>
              </g>
              <g opacity="1">
                <path fill="rgb(204,255,0)" fill-opacity="1" opacity="1" fill-rule="evenodd" d="M49.44681219006233 304.26781631118615C49.44681219006233 306.30599065690313 48.00000367942403 307.0986140135708 46.212769636870846 306.1078348177362C44.2906925945583 304.84791423540895 43.09674471048387 302.73926240041914 43.0070958780056 300.44623941296686C43.00709587800561 298.40806506724994 44.453904388643906 297.6154417105822 46.212769636870846 298.577912929393C48.146525821836704 299.84383220165137 49.35046596224162 301.9620180213173 49.44681219006233 304.26781631118627L49.44681219006233 304.26781631118615Z"/>
              </g>
              <g opacity="1">
                <path fill="rgb(204,255,0)" fill-opacity="1" opacity="1" fill-rule="evenodd" d="M49.44681219006233 314.6851518559639C49.44681219006233 316.7233262016808 48.00000367942403 317.5159495583485 46.212769636870846 316.5251703625139C44.2906925945583 315.2652497801867 43.09674471048387 313.1565979451969 43.0070958780056 310.8635749577447C43.00709587800561 308.79709263500393 44.453904388643906 308.0327772553601 46.212769636870846 308.99524847417086C48.15723292834665 310.25112231233237 49.364601203116095 312.37533951624664 49.44681219006233 314.6851518559639L49.44681219006233 314.6851518559639Z"/>
              </g>
              <g opacity="1">
                <path fill="rgb(204,255,0)" fill-opacity="1" opacity="1" fill-rule="evenodd" d="M49.44681219006233 325.10248740074223C49.44681219006233 327.14066174645916 48.00000367942403 327.9332851031269 46.212769636870846 326.9425059072923C44.2906925945583 325.6825853249651 43.09674471048387 323.5739334899753 43.0070958780056 321.28091050252306C43.00709587800561 319.21442817978226 44.453904388643906 318.4501128001384 46.212769636870846 319.4125840189492C48.15723292834665 320.66845785711064 49.364601203116095 322.79267506102497 49.44681219006233 325.10248740074223L49.44681219006233 325.10248740074223Z"/>
              </g>
              <g opacity="1">
                <path fill="rgb(27,33,34)" fill-opacity="1" opacity="1" fill-rule="evenodd" d="M47.82979091346645 325.66864694121597C45.90771387115389 324.4087263588887 44.71376598707944 322.3000745238989 44.62411715460118 320.0070515364466C44.57675320246685 319.6689997360505 44.57675320246685 319.3260161639843 44.62411715460119 318.9879643635882C43.57447176453026 318.98796436358816 42.865251906374226 319.83720367430357 42.865251906374226 321.28091050251976C42.954900738852494 323.573933489972 44.148848622926934 325.68258532496185 46.070925665239486 326.94250590728905C47.51773417587779 327.76343724098064 48.73759233190617 327.3671255626468 49.13475545247354 326.09326659657364C48.67149290624182 326.06045006305 48.22338919885479 325.9146425440656 47.82979091346644 325.66864694121597L47.82979091346645 325.66864694121597Z"/>
              </g>
              <g opacity="1">
                <path fill="rgb(27,33,34)" fill-opacity="1" opacity="1" fill-rule="evenodd" d="M47.82979091346645 315.2513113964412C45.90771387115389 313.991390814114 44.71376598707944 311.8827389791242 44.62411715460118 309.58971599167194C44.57675320246685 309.25166419127584 44.57675320246685 308.9086806192096 44.62411715460119 308.5706288188135C43.57447176453026 308.5706288188135 42.865251906374226 309.4198681295289 42.865251906374226 310.8635749577451C42.954900738852494 313.1565979451973 44.148848622926934 315.2652497801871 46.070925665239486 316.52517036251436C47.51773417587779 317.3461016962059 48.73759233190617 316.94979001787203 49.13475545247354 315.67593105179895C48.67149290624182 315.64311451827524 48.22338919885479 315.4973069992909 47.82979091346644 315.2513113964412L47.82979091346645 315.2513113964412Z"/>
              </g>
              <g opacity="1">
                <path fill="rgb(27,33,34)" fill-opacity="1" opacity="1" fill-rule="evenodd" d="M47.82979091346645 304.83397585166665C45.90771387115389 303.5740552693394 44.71376598707944 301.4654034343495 44.62411715460118 299.17238044689725C44.57675320246685 298.83432864650115 44.57675320246685 298.4913450744349 44.62411715460119 298.1532932740388C43.57447176453026 298.1532932740388 42.865251906374226 298.9742246077304 42.865251906374226 300.4179314359465C42.95954451732897 302.7096362348516 44.152376543888096 304.8163173347459 46.07092566523953 306.0795268407159C47.51773417587779 306.9004581744075 48.73759233190617 306.50414649607364 49.13475545247354 305.2302875300005C48.67393947260922 305.2060569739227 48.226003148492104 305.07002078972675 47.82979091346644 304.8339758516666L47.82979091346645 304.83397585166665Z"/>
              </g>
              <g opacity="1">
                <path fill="rgb(204,255,0)" fill-opacity="1" opacity="1" fill-rule="evenodd" d="M102.6099327574382 373.42420418044526L100.48227318297009 372.2069611684198C99.72770475656094 371.68470901366356 99.27315201141347 370.8302941320842 99.26241502694171 369.9140150294882L99.26241502694171 359.7231433009034C99.26241502694171 358.84559601316414 99.8014221191403 358.42097635780647 100.48227318297009 358.8172880361403L102.6099327574382 360.0345310481658C103.35374998398714 360.56297256365656 103.79719995711787 361.41636407211854 103.80142211914034 362.3274771870974L103.80142211914034 372.51834891568217C103.80142211914034 373.39589620342144 103.26241502694177 373.8205158587792 102.6099327574382 373.42420418044526L102.6099327574382 373.42420418044526Z"/>
              </g>
              <g transform="translate(127.95745048793432, 139.4454320959786) rotate(180.00006436155007) translate(-127.95745048793432, -139.4454320959786)" opacity="0.2">
                <path fill="url(#linearGradient-37)" opacity="1" fill-rule="evenodd" d="M185.98581928226054 32.018567732346355L127.79763683487488 -4.547473508864641e-13L69.92908169360811 32.01856773234636L69.92908169360814 245.82058240896495C70.0201750905915 247.30160311097978 70.92707025511443 248.6099659355809 72.28369162268615 249.2175396518265L121.6170249560194 277.52551667567315C126.00368258505455 279.52826840461984 131.08547979704974 279.3178574998574 135.29078382126764 276.9593571351962L182.66667034609026 249.67046728420806C184.41252716386737 248.90970188009112 185.65923528270716 247.32541746445483 185.98581928226054 245.452578707655L185.98581928226054 32.018567732346355Z"/>
              </g>
              <g opacity="1">
                <path fill="rgb(27,33,34)" fill-opacity="1" opacity="1" fill-rule="evenodd" d="M169.39007460141005 183.56260228150796L125.39007460141002 204.36896539403517L87.88652850211923 180.84503648721864L125.92908169360858 116.55762066606303L169.39007460141005 183.56260228150796Z"/>
              </g>
              <g opacity="1">
                <path fill="rgb(27,33,34)" fill-opacity="1" opacity="1" fill-rule="evenodd" d="M169.3900746014105 190.66790451449245L125.21986183545297 239.78224465086612L86.46808878580754 186.1952441447247L125.39007460141042 210.9647240405904L169.3900746014105 190.66790451449245Z"/>
              </g>
              <g opacity="1">
                <path fill="rgb(12,12,12)" fill-opacity="1" opacity="1" fill-rule="evenodd" d="M125.39007460141015 210.82318415547303L169.3900746014103 190.66790451449424L125.21986183545272 239.5557808346773L125.39007460141015 210.82318415547303Z"/>
              </g>
              <g opacity="1">
                <path fill="rgb(12,12,12)" fill-opacity="1" opacity="1" fill-rule="evenodd" d="M169.3900746014099 183.56260228150603L125.39007460140994 204.36896539403327L125.92908169360851 116.61423662010884L169.3900746014099 183.56260228150603Z"/>
              </g>
            </g>
          </g>
        </g>
      </g>
    </g>
  </g>
</svg>